<svg xmlns="http://www.w3.org/2000/svg" xmlns:xlink="http://www.w3.org/1999/xlink" version="1.1" x="0px" y="0px" viewBox="206 206 100 95" enable-background="new 206 206 100 100" xml:space="preserve"><g><path fill="#FFFFFF" d="M300.743,223.342h-3.014v-3.013c0-0.368-0.298-0.667-0.666-0.667h-3.012v-3.011   c0-0.369-0.298-0.667-0.667-0.667h-6.969c-0.368,0-0.668,0.298-0.668,0.667v9.889v9.312c-1.424,3.879-3.368,7.709-5.779,11.385   c-0.001,0-0.001,0.001-0.001,0.002c-0.003,0.002-0.003,0.004-0.005,0.005c-1.673,2.548-3.604,5.072-5.737,7.5   c-1.757,2-3.69,3.979-5.749,5.886c-1.795,1.668-3.732,3.321-5.755,4.917c-1.83,1.444-3.769,2.871-5.763,4.243   c-1.824,1.259-3.764,2.516-5.765,3.739c-1.841,1.122-3.783,2.245-5.769,3.334c-1.855,1.016-3.797,2.024-5.769,3   c-1.856,0.918-3.793,1.828-5.757,2.708c-0.004,0-0.008,0.002-0.012,0.004c-0.001,0-0.003,0.002-0.004,0.002   c-1.868,0.835-3.808,1.661-5.765,2.453c-0.01,0.005-0.021,0.01-0.031,0.014c-1.939,0.783-3.875,1.529-5.753,2.212   c-6.707,2.446-11.198,3.616-11.243,3.627c-0.325,0.085-0.537,0.397-0.495,0.73c0.042,0.334,0.326,0.584,0.662,0.584h11.3   c0.001,0,0.002,0,0.004,0s0.002,0,0.003,0h5.79c0.001,0,0.002,0,0.004,0c0.001,0,0.002,0,0.003,0h5.788c0.001,0,0.002,0,0.003,0   c0.001,0,0.002,0,0.004,0h5.789c0.001,0,0.002,0,0.003,0s0.002,0,0.004,0h5.787c0.001,0,0.002,0,0.004,0c0.001,0,0.002,0,0.004,0   h5.789c0.002,0,0.003,0,0.004,0c0.002,0,0.003,0,0.004,0h5.789c0.001,0,0.002,0,0.003,0c0.002,0,0.004,0,0.005,0h5.787   c0.001,0,0.003,0,0.004,0s0.002,0,0.003,0h5.79c0.001,0,0.002,0,0.003,0c0.002,0,0.003,0,0.004,0h5.79c0.001,0,0.002,0,0.003,0   s0.002,0,0.004,0h2.911c1.837,2.324,4.679,3.819,7.864,3.819c5.525,0,10.022-4.495,10.022-10.021c0-4.989-3.667-9.138-8.445-9.897   v-40.127c0-0.001-0.001-0.004-0.001-0.006v-8.757h2.345v3.012c0,0.369,0.298,0.667,0.666,0.667h3.014v3.011   c0,0.368,0.298,0.667,0.666,0.667h6.971c0.368,0,0.666-0.299,0.666-0.667v-9.888C301.409,223.64,301.111,223.342,300.743,223.342z    M274.059,256.92v33.942h-4.462v-29.454C271.164,259.947,272.658,258.442,274.059,256.92z M223.229,288.347   c1.465-0.538,2.96-1.112,4.463-1.71v4.226h-4.463V288.347z M229.026,286.099c1.509-0.613,3.002-1.247,4.461-1.891v6.654h-4.461   V286.099z M234.821,283.615c1.515-0.681,3.009-1.379,4.463-2.087v9.335h-4.463V283.615z M240.617,280.871   c1.516-0.752,3.01-1.524,4.461-2.306v12.297h-4.461V280.871z M246.412,277.84c1.525-0.841,3.02-1.698,4.463-2.564v15.587h-4.463   V277.84z M252.209,274.468c1.533-0.942,3.029-1.904,4.463-2.868v19.263h-4.463V274.468z M258.006,270.685   c1.528-1.058,3.021-2.147,4.46-3.252v23.43h-4.46V270.685z M263.8,266.393c1.548-1.23,3.043-2.491,4.463-3.766v28.235H263.8   V266.393z M221.896,288.833v2.029h-6.015C217.524,290.344,219.563,289.668,221.896,288.833z M275.392,290.863v-35.431   c1.61-1.844,3.104-3.741,4.461-5.662v27.955c-2.636,1.808-4.369,4.839-4.369,8.27c0,1.766,0.461,3.426,1.266,4.868H275.392z    M294.194,285.994c0,4.792-3.898,8.689-8.688,8.689c-4.791,0-8.688-3.897-8.688-8.689c0-4.79,3.896-8.688,8.688-8.688   C290.296,277.307,294.194,281.204,294.194,285.994z M285.506,275.972c-1.545,0-3.01,0.354-4.318,0.98v-29.147   c1.777-2.728,3.306-5.538,4.561-8.391v36.564C285.668,275.977,285.588,275.972,285.506,275.972z M287.082,217.318h5.636v8.556   h-2.619c-0.001,0-0.004-0.001-0.006-0.001c-0.001,0-0.003,0.001-0.006,0.001h-3.005V217.318z M290.76,227.207h2.624   c0.369,0,0.667-0.299,0.667-0.667v-5.543h2.345v8.556h-5.636V227.207z M300.075,233.23h-5.636v-2.344h2.624   c0.368,0,0.666-0.298,0.666-0.667v-5.543h2.346V233.23z"/><path fill="#FFFFFF" d="M284.84,278.682l-0.001,1.274c-1.731,0.134-3.101,1.58-3.101,3.346c0,1.853,1.507,3.359,3.359,3.359h0.408   c1.117,0,2.025,0.908,2.025,2.026c0,1.116-0.908,2.024-2.025,2.024l0,0l0,0l0,0h-2.691c-0.369,0-0.668,0.3-0.668,0.668   s0.3,0.667,0.668,0.667h2.024v1.262c0,0.368,0.299,0.667,0.667,0.667s0.666-0.299,0.666-0.667v-1.328   c1.535-0.311,2.693-1.67,2.693-3.293c0-1.853-1.507-3.358-3.359-3.358h-0.408c-1.117,0-2.025-0.909-2.025-2.027   c0-1.116,0.908-2.024,2.024-2.024h2.692c0.369,0,0.668-0.299,0.668-0.667s-0.299-0.667-0.668-0.667h-1.617l0.002-1.262   c0-0.368-0.3-0.667-0.668-0.667S284.84,278.314,284.84,278.682z"/><path fill="#FFFFFF" d="M258.525,237.976c2.972,0,5.391-2.418,5.391-5.391c0-2.972-2.419-5.39-5.391-5.39   c-2.972,0-5.39,2.418-5.39,5.39C253.135,235.558,255.553,237.976,258.525,237.976z M258.525,228.529   c2.236,0,4.057,1.82,4.057,4.057c0,2.237-1.82,4.057-4.057,4.057c-2.237,0-4.057-1.819-4.057-4.057   C254.469,230.349,256.288,228.529,258.525,228.529z"/><path fill="#FFFFFF" d="M222.814,247.906c0.066,0.212,0.235,0.378,0.449,0.441l7.139,2.101l0.269,0.269   c-0.208,0.098-0.401,0.23-0.568,0.397c-0.786,0.786-0.786,2.065,0,2.852l7.044,7.044c0.38,0.379,0.887,0.589,1.426,0.589   s1.046-0.21,1.426-0.589c0.167-0.168,0.299-0.359,0.397-0.567l0.27,0.269l2.1,7.14c0.063,0.212,0.228,0.382,0.441,0.446l4.72,1.478   c0.065,0.021,0.132,0.029,0.199,0.029c0.156,0,0.31-0.056,0.432-0.158c11.243-9.584,13.082-20.104,13.337-24.34   c3.904-4.794,5.956-9.035,7.024-12.322c2.16-6.651,0.925-10.903,0.84-11.179c0-0.001,0-0.001-0.001-0.002   c0-0.002-0.001-0.007-0.002-0.009c-0.005-0.014-0.011-0.025-0.017-0.039c-0.01-0.026-0.021-0.052-0.032-0.077   c-0.011-0.019-0.023-0.035-0.035-0.053s-0.023-0.037-0.038-0.054c-0.013-0.017-0.028-0.03-0.044-0.045   c-0.016-0.016-0.03-0.032-0.047-0.046c-0.016-0.013-0.034-0.023-0.051-0.035c-0.019-0.013-0.036-0.027-0.058-0.038   c-0.018-0.01-0.039-0.017-0.059-0.025c-0.019-0.008-0.036-0.018-0.057-0.024c-0.179-0.057-4.455-1.351-11.189,0.836   c-3.287,1.068-7.528,3.121-12.322,7.024c-4.265,0.26-14.771,2.111-24.339,13.337c-0.149,0.175-0.197,0.413-0.129,0.632   L222.814,247.906z M231.847,245.225c0.128-0.128,0.299-0.199,0.482-0.199c0.184,0,0.355,0.07,0.483,0.199l13.074,13.074   c0.128,0.127,0.199,0.299,0.199,0.482c0,0.183-0.07,0.354-0.199,0.482c-0.255,0.256-0.709,0.256-0.965,0.002   c0-0.002,0-0.002-0.001-0.002l-13.074-13.074c0,0,0,0,0,0C231.58,245.923,231.581,245.49,231.847,245.225z M230.421,246.935   c0.183,0,0.354,0.07,0.482,0.198l0,0l13.074,13.074c0.001,0,0.001,0,0.001,0c0.266,0.266,0.266,0.699-0.001,0.967   c-0.255,0.255-0.709,0.255-0.965,0l-3.008-3.009c-0.002-0.002-0.004-0.005-0.007-0.007l-7.044-7.045   c-0.002-0.002-0.005-0.005-0.007-0.007l-3.008-3.008c-0.266-0.266-0.266-0.7,0-0.966   C230.066,247.005,230.237,246.935,230.421,246.935z M239.252,259.582c0,0.186-0.07,0.355-0.198,0.484   c-0.256,0.255-0.71,0.255-0.966,0l-7.044-7.044c-0.267-0.266-0.266-0.7,0-0.966c0.128-0.128,0.299-0.198,0.482-0.198   c0.182,0,0.353,0.07,0.479,0.195l7.051,7.051C239.183,259.233,239.252,259.402,239.252,259.582z M247.97,268.39l-4.027-1.259   l-1.368-4.646c0.281,0.143,0.594,0.221,0.919,0.221c0.54,0,1.046-0.21,1.426-0.589c0.368-0.369,0.561-0.842,0.585-1.324   c0.5-0.026,0.968-0.229,1.323-0.585c0.38-0.379,0.589-0.886,0.589-1.426c0-0.103-0.01-0.203-0.024-0.302   c5.585-3.96,9.8-7.808,12.979-11.389C259.71,251.85,257.185,260.408,247.97,268.39z M258.426,223.499   c5.301-1.747,9.023-1.196,10.142-0.956c0.24,1.119,0.791,4.841-0.955,10.142c-1.927,5.842-7.111,14.828-20.847,24.607   l-12.946-12.947C243.598,230.61,252.584,225.426,258.426,223.499z M244.019,230.739c-3.58,3.178-7.428,7.394-11.389,12.979   c-0.099-0.015-0.199-0.024-0.301-0.024c-0.539,0-1.046,0.208-1.426,0.588c-0.367,0.368-0.561,0.843-0.585,1.325   c-0.501,0.025-0.968,0.229-1.324,0.584c-0.633,0.634-0.755,1.587-0.367,2.346l-4.647-1.368l-1.258-4.027   C230.701,233.927,239.26,231.403,244.019,230.739z"/><path fill="#FFFFFF" d="M232.16,258.009l-3.308,3.308c-0.261,0.259-0.261,0.684,0,0.942c0.13,0.132,0.301,0.196,0.472,0.196   c0.17,0,0.341-0.064,0.471-0.196l3.309-3.308c0.26-0.262,0.26-0.684,0-0.942C232.843,257.748,232.421,257.748,232.16,258.009z"/><path fill="#FFFFFF" d="M230.665,256.513l-3.309,3.309c-0.26,0.261-0.26,0.683,0,0.941c0.13,0.132,0.301,0.197,0.471,0.197   c0.171,0,0.341-0.065,0.472-0.197l3.308-3.308c0.26-0.259,0.26-0.683,0-0.942C231.348,256.253,230.926,256.253,230.665,256.513z"/><path fill="#FFFFFF" d="M229.17,255.018l-3.308,3.309c-0.261,0.261-0.261,0.683,0,0.941c0.13,0.132,0.301,0.196,0.472,0.196   c0.17,0,0.341-0.064,0.471-0.196l3.308-3.307c0.26-0.261,0.26-0.683,0-0.943C229.853,254.758,229.431,254.757,229.17,255.018z"/><path fill="#FFFFFF" d="M232.314,265.444c0.17,0,0.341-0.064,0.472-0.193l3.308-3.309c0.261-0.261,0.261-0.683,0-0.944   c-0.26-0.259-0.682-0.259-0.943,0l-3.309,3.309c-0.261,0.261-0.261,0.683,0,0.944C231.972,265.379,232.143,265.444,232.314,265.444   z"/><path fill="#FFFFFF" d="M230.819,263.95c0.171,0,0.342-0.066,0.472-0.196l3.308-3.308c0.261-0.261,0.261-0.683,0-0.944   c-0.26-0.259-0.682-0.259-0.943,0l-3.308,3.311c-0.261,0.259-0.261,0.681,0,0.941C230.478,263.884,230.649,263.95,230.819,263.95z"/><path fill="#FFFFFF" d="M227.336,264.442c0.171,0,0.341-0.064,0.472-0.194l0.827-0.828c0.261-0.259,0.261-0.683,0-0.941   c-0.26-0.262-0.682-0.262-0.943,0l-0.827,0.825c-0.261,0.262-0.26,0.684,0,0.944C226.995,264.377,227.165,264.442,227.336,264.442z   "/><path fill="#FFFFFF" d="M227.139,260.982c-0.26-0.261-0.683-0.261-0.943,0l-0.827,0.826c-0.261,0.262-0.261,0.683,0,0.944   c0.13,0.129,0.301,0.196,0.472,0.196s0.341-0.067,0.471-0.196l0.828-0.826C227.4,261.665,227.4,261.243,227.139,260.982z"/><path fill="#FFFFFF" d="M224.701,259.487l-0.827,0.828c-0.261,0.259-0.261,0.683,0,0.942c0.13,0.131,0.301,0.196,0.472,0.196   c0.17,0,0.341-0.065,0.471-0.196l0.828-0.826c0.26-0.261,0.26-0.683,0-0.944C225.383,259.226,224.961,259.226,224.701,259.487z"/><path fill="#FFFFFF" d="M230.798,267.239l0.827-0.828c0.26-0.261,0.26-0.683,0-0.942c-0.26-0.261-0.683-0.261-0.943,0l-0.828,0.826   c-0.26,0.262-0.26,0.684,0,0.944c0.13,0.129,0.301,0.194,0.472,0.194S230.668,267.367,230.798,267.239z"/><path fill="#FFFFFF" d="M228.83,265.937c0.171,0,0.342-0.064,0.472-0.193l0.828-0.828c0.261-0.259,0.261-0.684,0-0.942   c-0.261-0.261-0.683-0.261-0.943,0l-0.827,0.826c-0.261,0.261-0.261,0.683,0,0.944C228.489,265.872,228.66,265.937,228.83,265.937z   "/><path fill="#FFFFFF" d="M225.395,266.384c0.171,0,0.342-0.065,0.472-0.197l0.828-0.825c0.26-0.262,0.26-0.684,0-0.944   c-0.26-0.259-0.683-0.259-0.943,0l-0.827,0.828c-0.26,0.259-0.261,0.681,0,0.941C225.053,266.319,225.224,266.384,225.395,266.384z   "/><path fill="#FFFFFF" d="M223.9,264.888c0.17,0,0.341-0.064,0.471-0.194l0.828-0.828c0.26-0.261,0.26-0.683,0-0.943   c-0.261-0.26-0.683-0.26-0.943,0l-0.827,0.828c-0.261,0.261-0.261,0.683,0,0.943C223.558,264.823,223.729,264.888,223.9,264.888z"/><path fill="#FFFFFF" d="M222.76,261.429l-0.827,0.825c-0.26,0.262-0.26,0.684,0,0.944c0.13,0.13,0.301,0.194,0.472,0.194   s0.341-0.064,0.472-0.194l0.827-0.828c0.26-0.261,0.26-0.683,0-0.941C223.443,261.167,223.021,261.167,222.76,261.429z"/><path fill="#FFFFFF" d="M228.385,269.374c0.17,0,0.341-0.064,0.471-0.196l0.828-0.826c0.26-0.261,0.26-0.683,0-0.943   c-0.261-0.262-0.683-0.262-0.943,0l-0.827,0.828c-0.261,0.259-0.261,0.683,0,0.941C228.044,269.31,228.215,269.374,228.385,269.374   z"/><path fill="#FFFFFF" d="M226.89,267.879c0.171,0,0.341-0.064,0.472-0.196l0.827-0.826c0.261-0.261,0.261-0.683,0-0.944   c-0.26-0.259-0.682-0.259-0.943,0l-0.827,0.828c-0.26,0.259-0.26,0.684,0,0.942C226.55,267.815,226.719,267.879,226.89,267.879z"/></g></svg>