<svg xmlns="http://www.w3.org/2000/svg" xmlns:xlink="http://www.w3.org/1999/xlink" version="1.1" x="0px" y="0px" viewBox="0 0 239.87 296.48" style="enable-background:new 0 0 239.87 237.184;" xml:space="preserve"><g><path fill="#FFFFFF"   d="M108.718,69.5c4.894,12.365,7.281,28.803,7.293,50.23c0,0.086-0.002,0.177-0.002,0.263l2.559-2.495   c4.419,3.631,9.367,6.573,14.668,8.721l-2.227,7.908l11.849,3.34l2.227-7.904c5.538,0.925,11.279,1.032,17.063,0.213l2.025,7.963   l11.927-3.035l-2.024-7.961c5.472-2.044,10.465-4.882,14.889-8.341l5.731,5.88l8.816-8.592l-5.737-5.886   c3.629-4.418,6.569-9.365,8.717-14.664l7.909,2.228l3.338-11.852l-7.903-2.227c0.925-5.537,1.031-11.277,0.213-17.061l7.964-2.025   l-3.035-11.928l-7.962,2.024c-2.043-5.473-4.881-10.466-8.34-14.89l5.881-5.732l-8.593-8.814l-5.885,5.736   c-4.418-3.629-9.366-6.57-14.665-8.718l2.229-7.913l-11.848-3.332l-2.227,7.903c-5.538-0.926-11.279-1.033-17.063-0.215   l-2.024-7.962l-11.929,3.031l2.025,7.964c-5.474,2.044-10.467,4.881-14.891,8.34l-5.733-5.88l-8.813,8.592l5.735,5.884   c-3.63,4.419-6.572,9.367-8.72,14.668L96.43,51.35C100.657,54.897,105.2,60.533,108.718,69.5z M144.454,35.248   c21.431-5.449,43.217,7.508,48.671,28.934c5.449,21.43-7.508,43.219-28.938,48.668c-21.422,5.451-43.213-7.502-48.664-28.934   C110.073,62.49,123.025,40.699,144.454,35.248z"/><path fill="#FFFFFF"   d="M137.826,62.285c0,2.035,0.382,3.779,1.141,5.225c0.76,1.451,1.763,2.705,3.012,3.766c1.246,1.061,2.646,1.965,4.193,2.709   c1.549,0.746,3.328,1.549,5.334,2.41l-0.387,17.336c-2.668-0.145-5.148-0.674-7.441-1.594L141.225,81.9l-1.85,0.301l-1.764,12.344   l0.258,0.344c4.302,1.379,8.689,2.139,13.164,2.283l-0.131,5.721l3.357-0.346l0.129-5.506c5.248-0.398,9.334-1.861,12.26-4.387   c2.924-2.523,4.387-5.734,4.387-9.637c0-1.861-0.42-3.469-1.262-4.816c-0.84-1.35-1.943-2.521-3.309-3.529   c-1.365-1.002-2.911-1.869-4.643-2.602c-1.73-0.73-4.009-1.641-6.831-2.73l0.389-15.83c2.035,0.086,4,0.488,5.892,1.203l2.408,8.82   l1.635-0.258l2.106-11.229l-0.301-0.258c-3.728-0.975-7.627-1.49-11.699-1.547l0.129-5.033l-3.357,0.344l-0.128,4.816   c-4.359,0.316-7.821,1.535-10.388,3.656C139.11,56.148,137.826,58.902,137.826,62.285z M162.086,85.6   c0,4.588-2.535,7.256-7.611,8.002l0.344-15.916C159.665,79.723,162.086,82.359,162.086,85.6z M152.022,53.682l-0.344,14.281   c-3.268-2.006-4.902-4.646-4.902-7.916C146.775,56.379,148.524,54.256,152.022,53.682z"/><path fill="#FFFFFF"   d="M233.604,155.77l4.216-1.947l-2.919-6.314l-4.212,1.946c-1.636-2.718-3.698-5.223-6.173-7.405l2.677-3.795l-5.685-4.006   l-2.675,3.792c-2.887-1.6-5.938-2.702-9.047-3.332l0.421-4.62l-6.927-0.631l-0.421,4.624c-3.23,0.064-6.436,0.617-9.5,1.642   l-1.948-4.217l-6.313,2.92l1.946,4.211c-2.718,1.636-5.223,3.697-7.405,6.172l-3.794-2.676l-4.008,5.682l3.793,2.676   c-1.6,2.888-2.702,5.94-3.332,9.049l-4.62-0.42l-0.631,6.928l4.624,0.421c0.064,3.229,0.617,6.434,1.642,9.499l-4.215,1.947   l2.916,6.313l4.213-1.946c1.636,2.718,3.698,5.224,6.173,7.406l-2.676,3.794l5.683,4.01l2.677-3.794   c2.886,1.599,5.938,2.701,9.047,3.331l-0.421,4.621l6.928,0.629l0.421-4.623c3.23-0.063,6.436-0.617,9.5-1.641l1.947,4.213   l6.314-2.916l-1.946-4.211c2.719-1.637,5.224-3.698,7.406-6.174l3.793,2.676l4.008-5.684l-3.792-2.675   c1.6-2.887,2.701-5.938,3.33-9.048l4.62,0.42l0.632-6.928l-4.625-0.421C235.181,162.037,234.627,158.833,233.604,155.77z    M221.942,178.906c-7.199,10.207-21.312,12.646-31.521,5.445c-10.209-7.201-12.648-21.314-5.447-31.523   c7.201-10.207,21.314-12.645,31.524-5.445C226.707,154.584,229.142,168.699,221.942,178.906z"/><path fill="#FFFFFF"   d="M215.583,169.332c0.329-2.158-0.223-4.074-1.655-5.75c-0.683-0.799-1.454-1.334-2.31-1.605   c-0.855-0.27-1.762-0.369-2.717-0.299c-0.954,0.068-1.938,0.264-2.949,0.586c-1.011,0.32-2.322,0.767-3.936,1.336l-5.646-6.941   c0.906-0.709,1.897-1.258,2.975-1.645l4.272,2.902l0.607-0.711l-3.219-5.596h-0.225c-1.959,0.951-3.822,2.16-5.592,3.631   l-1.793-2.209l-1.316,1.381l1.714,2.115c-1.757,1.736-2.795,3.533-3.119,5.385c-0.322,1.854,0.138,3.508,1.381,4.961   c0.746,0.873,1.551,1.482,2.407,1.824c0.859,0.344,1.751,0.516,2.676,0.51c0.925,0,1.856-0.125,2.796-0.375   c0.94-0.248,1.997-0.555,3.176-0.922l6.199,7.586c-1.199,0.916-2.459,1.602-3.781,2.049l-4.813-3.498l-0.684,0.811l3.773,5.947   l0.238,0.053c2.354-0.986,4.518-2.271,6.492-3.852l2.044,2.504l1.316-1.381l-1.967-2.412   C214.036,173.617,215.255,171.49,215.583,169.332z M195.075,162.627c-1.348-1.576-1.375-3.129-0.083-4.662l5.096,6.26   C197.948,164.564,196.275,164.029,195.075,162.627z M210.702,174.207l-5.696-6.959c2.829-0.904,4.839-0.662,6.028,0.729   C212.718,169.947,212.609,172.023,210.702,174.207z"/><path fill="#FFFFFF"   d="M157.224,171.267l5.763-2.739l-4.106-8.642l-5.77,2.742c-2.338-3.776-5.238-7.181-8.596-10.09l3.624-5.258l-7.877-5.43   l-3.622,5.255c-3.841-2.071-8.036-3.591-12.496-4.44l0.51-6.367l-9.057-0.72c-0.059,1.217-0.117,2.433-0.189,3.669   c-0.437,7.387-6.568,13.178-13.969,13.182c-0.258,0-0.515-0.01-0.777-0.021c-2.816-0.166-5.436-1.127-7.612-2.76v14.871   c6.257-6.77,15.44-10.712,25.343-9.922c17.127,1.371,29.9,16.371,28.529,33.498c-1.369,17.123-16.363,29.898-33.492,28.527   c-8.121-0.649-15.26-4.365-20.38-9.916v18.113c0,0.924-0.091,1.825-0.224,2.713l2.354-3.416c3.841,2.07,8.037,3.59,12.496,4.439   l-0.51,6.366l9.534,0.762l0.51-6.365c4.537-0.129,8.921-0.962,13.042-2.395l2.74,5.764l8.64-4.107l-2.741-5.768   c3.778-2.338,7.184-5.239,10.094-8.598l5.257,3.623l5.432-7.875l-5.256-3.622c2.07-3.841,3.591-8.036,4.441-12.495l6.363,0.51   l0.761-9.537l-6.361-0.509C159.491,179.77,158.657,175.388,157.224,171.267z"/><path fill="#FFFFFF"   d="M95.005,177.467l-0.588,2.557l3.51,1.301c-0.863,3.289-0.832,6.141,0.08,8.561c0.919,2.42,2.623,4.053,5.11,4.902   c1.497,0.512,2.874,0.67,4.131,0.475c1.253-0.195,2.431-0.617,3.522-1.271c1.094-0.648,2.109-1.449,3.045-2.402   c0.939-0.951,1.977-2.059,3.113-3.318l12.653,4.637c-0.779,1.922-1.788,3.617-3.04,5.074l-8.148-0.768l-0.242,1.436l8.635,4.395   l0.32-0.102c2.092-2.816,3.755-5.854,4.984-9.107l4.172,1.531l0.59-2.559l-4.015-1.477c1.021-3.961,0.971-7.33-0.151-10.115   c-1.122-2.785-3.117-4.666-5.986-5.647c-1.367-0.467-2.656-0.56-3.859-0.281c-1.199,0.279-2.343,0.797-3.424,1.549   c-1.082,0.75-2.109,1.672-3.081,2.762c-0.972,1.084-2.212,2.537-3.724,4.338l-11.545-4.26c0.574-1.475,1.365-2.818,2.367-4.031   l7.09,0.443l0.224-1.27l-7.733-4.365l-0.264,0.156c-1.654,2.498-3.01,5.236-4.074,8.215L95.005,177.467z M100.353,182.188   l10.416,3.838c-2.292,1.902-4.648,2.439-7.051,1.621C101.018,186.727,99.898,184.906,100.353,182.188z M130.327,190.406   l-11.619-4.248c2.714-3.051,5.264-4.172,7.646-3.361C129.728,183.949,131.052,186.484,130.327,190.406z"/><path fill="#FFFFFF"   d="M57.683,134.549h4.636v90.269c0,6.832,5.537,12.365,12.365,12.365c6.826,0,12.363-5.533,12.363-12.365v-98v-18.937V74.816   c3.467,7.1,6.999,20.703,6.965,44.92c0,5.514-0.178,11.57-0.568,18.223c-0.26,4.406,3.105,8.195,7.521,8.453   c0.157,0.01,0.315,0.016,0.472,0.016c4.205-0.002,7.731-3.281,7.981-7.533c0.405-6.934,0.593-13.301,0.593-19.158   c-0.011-22.658-2.77-37.666-6.877-48.045c-4.057-10.34-9.855-16.174-15.234-18.842c-3.416-1.721-6.414-2.111-8.221-2.133   c-0.119-0.006-0.238-0.018-0.359-0.018H52.76c0.004,0.219,0.008,0.477,0.009,0.807c-0.016,3.916-0.447,15.504-5.407,28.772   l-5.539-2.333c4.512-12.225,4.959-22.986,4.946-26.439c0-0.36-0.004-0.62-0.009-0.807h-6.077c-0.479,0-0.944,0.05-1.399,0.133   l0.001,0.008c-3.088,0.349-5.766,1.558-8.109,3.105c-2.766,1.85-5.152,4.262-7.215,7.111c-4.088,5.686-6.924,13.246-6.939,21.842   c-0.01,6.436,1.672,13.408,5.572,20.1c3.891,6.699,9.926,13.072,18.375,18.721c1.365,0.914,2.912,1.352,4.441,1.352   c2.58,0,5.113-1.246,6.656-3.551c2.457-3.674,1.473-8.641-2.201-11.1c-6.775-4.539-10.939-9.168-13.439-13.465   c-2.49-4.307-3.395-8.324-3.404-12.057c-0.004-3.486,0.836-6.738,2.119-9.43c1.264-2.686,3.018-4.777,4.393-5.836   c0.426-0.342,0.79-0.558,1.067-0.699l0.184,2.26c-1.045,0.805-2.648,2.608-3.834,5.127c-1.268,2.658-1.933,5.619-1.931,8.576   c0.007,1.966,0.288,3.88,0.843,5.771l3.568-8.474L70.42,93.242l-16.65,39.537l-30.987-13.048l3.461-8.219   c-2.065-2.405-3.869-4.909-5.382-7.511c-3.832-6.578-5.852-13.877-5.839-21.107c0.012-8.291,2.611-16.461,7.313-23.006   c2.271-3.139,4.872-5.695,7.728-7.605c2.847-1.881,6.135-3.07,9.056-3.463l0.001,0.017c0.51-0.083,1.029-0.138,1.563-0.138h14.626   c-5.287-1.129-14.396-2.854-20.274-2.771c-1.518,0.021-2.824,0.16-3.788,0.465c-6.331,2-24,14-30.5,49.5   c-4.888,26.692,15.242,47.588,30.207,51.213v-20.677l2,0.842v28.707v68.841c0,6.832,5.537,12.365,12.365,12.365   c5.281,0,9.778-3.318,11.549-7.982c0.519-1.364,0.814-2.838,0.814-4.384V134.549z"/><circle fill="#FFFFFF" cx="60.001" cy="22.5" r="22.5"/><rect fill="#FFFFFF" x="50.687" y="82.662" transform="matrix(0.3874 -0.9219 0.9219 0.3874 -54.9274 105.4035)" width="2.325" height="22.743"/><rect fill="#FFFFFF" x="48.881" y="86.947" transform="matrix(0.3874 -0.9219 0.9219 0.3874 -59.9855 106.3612)" width="2.325" height="22.745"/></g></svg>