<svg xmlns:dc="http://purl.org/dc/elements/1.1/" xmlns:cc="http://creativecommons.org/ns#" xmlns:rdf="http://www.w3.org/1999/02/22-rdf-syntax-ns#" xmlns:svg="http://www.w3.org/2000/svg" xmlns="http://www.w3.org/2000/svg" xmlns:sodipodi="http://sodipodi.sourceforge.net/DTD/sodipodi-0.dtd" xmlns:inkscape="http://www.inkscape.org/namespaces/inkscape" version="1.1" x="0px" y="0px" viewBox="0 0 484.9 600" style="enable-background:new 0 0 484.9 484.9;" xml:space="preserve"><path fill="#FFFFFF" d="M 242.34961 0 C 235.74961 0 230.34961 5.4 230.34961 12 L 230.34961 25.599609 L 230.15039 25.599609 C 208.75039 25.599609 191.34961 43.000391 191.34961 64.400391 C 191.34961 85.800391 208.75039 103.30078 230.15039 103.30078 L 254.65039 103.30078 C 262.85039 103.30078 269.44922 109.99961 269.44922 118.09961 C 269.44922 126.19961 262.75039 132.90039 254.65039 132.90039 L 210.65039 132.90039 C 204.05039 132.90039 198.65039 138.30039 198.65039 144.90039 C 198.65039 151.50039 204.05039 156.90039 210.65039 156.90039 L 230.34961 156.90039 L 230.34961 170.80078 C 230.34961 177.40078 235.74961 182.80078 242.34961 182.80078 C 248.94961 182.80078 254.34961 177.40078 254.34961 170.80078 L 254.34961 156.90039 L 254.84961 156.90039 L 255.15039 156.90039 C 276.35039 156.60039 293.44922 139.29961 293.44922 118.09961 C 293.44922 96.699609 276.05039 79.300781 254.65039 79.300781 L 230.15039 79.300781 C 221.95039 79.300781 215.34961 72.6 215.34961 64.5 C 215.34961 56.4 222.05039 49.699219 230.15039 49.699219 L 273.34961 49.699219 C 279.94961 49.699219 285.34961 44.299219 285.34961 37.699219 C 285.34961 31.099219 279.94961 25.699219 273.34961 25.699219 L 254.34961 25.699219 L 254.34961 12 C 254.34961 5.4 248.94961 0 242.34961 0 z M 242.34961 203.19922 C 235.74961 203.19922 230.34961 208.59922 230.34961 215.19922 L 230.34961 301.80078 L 155.34961 345.09961 C 149.64961 348.39961 147.64922 355.8 150.94922 361.5 C 153.14922 365.4 157.24961 367.5 161.34961 367.5 C 163.34961 367.5 165.44961 367.00039 167.34961 365.90039 L 242.34961 322.59961 L 317.34961 365.90039 C 319.24961 367.00039 321.34961 367.5 323.34961 367.5 C 327.44961 367.5 331.55 365.3 333.75 361.5 C 337.05 355.8 335.04961 348.39961 329.34961 345.09961 L 254.34961 301.80078 L 254.34961 215.19922 C 254.34961 208.59922 248.94961 203.19922 242.34961 203.19922 z M 403.55078 289.30078 C 396.95078 289.30078 391.55078 294.70078 391.55078 301.30078 L 391.55078 314.90039 L 391.34961 314.90039 C 369.94961 314.90039 352.55078 332.29922 352.55078 353.69922 C 352.55078 375.09922 369.94961 392.5 391.34961 392.5 L 415.84961 392.5 C 424.04961 392.5 430.65039 399.20078 430.65039 407.30078 C 430.65039 415.40078 423.94961 422.09961 415.84961 422.09961 L 371.84961 422.09961 C 365.24961 422.09961 359.84961 427.49961 359.84961 434.09961 C 359.84961 440.69961 365.24961 446.09961 371.84961 446.09961 L 391.55078 446.09961 L 391.55078 460 C 391.55078 466.6 396.95078 472 403.55078 472 C 410.15078 472 415.55078 466.6 415.55078 460 L 415.55078 446.09961 L 416.05078 446.09961 L 416.34961 446.09961 C 437.54961 445.79961 454.65039 428.50078 454.65039 407.30078 C 454.55039 385.90078 437.15 368.5 415.75 368.5 L 391.25 368.5 C 383.05 368.5 376.44922 361.79922 376.44922 353.69922 C 376.44922 345.59922 383.15 338.90039 391.25 338.90039 L 434.44922 338.90039 C 441.04922 338.90039 446.44922 333.50039 446.44922 326.90039 C 446.44922 320.30039 441.04922 314.90039 434.44922 314.90039 L 415.55078 314.90039 L 415.55078 301.30078 C 415.55078 294.70078 410.15078 289.30078 403.55078 289.30078 z M 81.25 302.19922 C 74.65 302.19922 69.25 307.59922 69.25 314.19922 L 69.25 327.80078 L 69.050781 327.80078 C 47.650781 327.80078 30.25 345.19961 30.25 366.59961 C 30.25 387.99961 47.650781 405.40039 69.050781 405.40039 L 93.550781 405.40039 C 101.75078 405.40039 108.34961 412.09922 108.34961 420.19922 C 108.34961 428.29922 101.65078 435 93.550781 435 L 49.550781 435 C 42.950781 435 37.550781 440.4 37.550781 447 C 37.550781 453.6 42.950781 459 49.550781 459 L 69.25 459 L 69.25 472.90039 C 69.25 479.50039 74.65 484.90039 81.25 484.90039 C 87.85 484.90039 93.25 479.50039 93.25 472.90039 L 93.25 459 L 93.75 459 L 94.050781 459 C 115.25078 458.7 132.34961 441.39922 132.34961 420.19922 C 132.24961 398.89922 114.84922 381.40039 93.449219 381.40039 L 68.949219 381.40039 C 60.749219 381.40039 54.150391 374.69961 54.150391 366.59961 C 54.150391 358.49961 60.849219 351.80078 68.949219 351.80078 L 112.15039 351.80078 C 118.75039 351.80078 124.15039 346.40078 124.15039 339.80078 C 124.15039 333.20078 118.75039 327.80078 112.15039 327.80078 L 93.25 327.80078 L 93.25 314.19922 C 93.25 307.59922 87.85 302.19922 81.25 302.19922 z "/></svg>