<svg xmlns:dc="http://purl.org/dc/elements/1.1/" xmlns:cc="http://creativecommons.org/ns#" xmlns:rdf="http://www.w3.org/1999/02/22-rdf-syntax-ns#" xmlns:svg="http://www.w3.org/2000/svg" xmlns="http://www.w3.org/2000/svg" xmlns:sodipodi="http://sodipodi.sourceforge.net/DTD/sodipodi-0.dtd" xmlns:inkscape="http://www.inkscape.org/namespaces/inkscape" viewBox="0 0 100 100" version="1.1" x="0px" y="0px"><g transform="translate(0,-952.36216)"><path style="" d="m 81.768419,976.07227 c -2.96266,0 -5.37238,2.4095 -5.37238,5.3722 8.2e-4,2.9812 2.41051,5.3722 5.37238,5.3722 2.98115,0 5.39731,-2.391 5.39731,-5.3722 0,-2.9627 -2.41616,-5.3722 -5.39731,-5.3722 z m -32.52284,5.2585 c -2.66639,0 -4.83518,2.1687 -4.83518,4.8351 8.2e-4,2.683 2.1695,4.835 4.83518,4.835 2.68304,0 4.85757,-2.152 4.85757,-4.835 0,-2.6664 -2.17453,-4.8351 -4.85757,-4.8351 z m -29.33614,5.2586 c -2.37013,0 -4.29784,1.9275 -4.29784,4.2977 8.2e-4,2.3849 1.92834,4.2978 4.29784,4.2978 2.38491,0 4.31798,-1.9129 4.31798,-4.2978 0,-2.3702 -1.93307,-4.2977 -4.31798,-4.2977 z m 61.05895,1.8068 0,4e-4 -0.86542,0 0.88668,-9e-4 c -0.007,-8e-4 -0.0142,0 -0.0213,0 z m -0.86542,0 c -0.009,-10e-5 -0.0185,-6e-4 -0.0278,-6e-4 l -8e-4,2e-4 -1.41779,0 c -1.78898,0 -3.79883,0.4737 -5.28685,1.2707 l 0.006,0 c -3.22406,1.782 -5.36182,3.3894 -6.7032,5.6189 -1.59037,2.6434 -1.73708,5.63703 -1.72476,9.75343 -0.0136,1.1767 0.93827,2.1369 2.11502,2.1334 1.17676,0 2.12307,-0.9695 2.1024,-2.1461 -0.0119,-3.9799 0.21893,-6.06693 1.12106,-7.56633 0.68924,-1.1456 1.9672,-2.2559 4.36754,-3.662 l -1.93852,9.26713 -0.16339,0.7812 c -0.24746,1.1834 -0.0823,2.0775 0.57828,3.1015 l 3.66664,5.6831 1.03776,1.6084 8.38496,12.9962 c 0.89072,1.4256 2.77576,1.8466 4.18832,0.9352 1.41255,-0.9113 1.80613,-2.8024 0.87437,-4.2015 l -11.25684,-17.4474 1.0261,-4.2829 0.7511,-3.13493 c 2.15343,3.91063 7.15335,4.96883 10.57528,5.78123 1.14128,0.2861 2.29589,-0.4169 2.56556,-1.5622 0.26967,-1.1453 -0.44991,-2.2898 -1.59894,-2.543 -3.87407,-0.91213 -5.8506,-1.62123 -7.09969,-2.84663 -0.65295,-0.6406 -1.28819,-1.533 -1.782,-2.9068 -0.49381,-1.3737 -0.72488,-2.8913 -1.16439,-4.2482 l -0.004,-0.014 -8e-4,0 c -0.44712,-1.3528 -1.73932,-2.358 -3.19068,-2.3717 z m -31.57748,4.0234 0,6e-4 -0.76725,0 0.78644,-10e-4 c -0.006,-8e-4 -0.0128,0 -0.0192,0 z m -0.76725,0 c -0.005,-10e-5 -0.0106,-5e-4 -0.016,-5e-4 l 3.2e-4,3e-4 c -0.007,0 -0.014,-9e-4 -0.0211,-9e-4 l -8e-4,0 -1.27599,0 c -1.61007,0 -3.41891,0.4263 -4.75812,1.1436 l 0.005,0 c -2.90166,1.6038 -4.82559,3.0504 -6.03284,5.0569 -1.43133,2.37903 -1.56333,5.07343 -1.55225,8.77813 -0.0122,1.059 0.84443,1.9232 1.90351,1.92 1.05908,0 1.91075,-0.8724 1.89215,-1.9313 -0.0107,-3.582 0.19708,-5.4604 1.00899,-6.8099 0.62032,-1.03103 1.77044,-2.03013 3.93076,-3.29573 l -1.74475,8.34043 -0.14693,0.7031 c -0.22272,1.0651 -0.0741,1.8698 0.5204,2.7913 l 3.30004,5.1148 0.7687,1.1914 0.16515,0.2561 1.84259,2.8558 5.70396,8.8408 c 0.80166,1.283 2.4983,1.6619 3.7696,0.8417 1.2713,-0.8202 1.62535,-2.5222 0.78676,-3.7814 l -10.13114,-15.7026 0.92346,-3.8546 0.67612,-2.8214 c 1.93808,3.5196 6.43795,4.4719 9.51769,5.2031 1.02714,0.2574 2.06626,-0.3754 2.30896,-1.4062 0.2427,-1.0307 -0.40494,-2.0606 -1.43906,-2.2885 -3.48667,-0.8208 -5.26549,-1.4591 -6.38968,-2.562 -0.58766,-0.5765 -1.15931,-1.37973 -1.60374,-2.61613 -0.44443,-1.2364 -0.65245,-2.6022 -1.048,-3.8235 l -0.004,-0.013 -9.6e-4,0 c -0.40118,-1.2137 -1.55826,-2.1163 -2.85958,-2.134 z m -28.48864,4.0233 0,8e-4 -0.67324,0 0.69019,-8e-4 c -0.006,-8e-4 -0.0113,0 -0.017,0 z m -0.67324,0 c -0.005,-10e-5 -0.009,-4e-4 -0.0138,-5e-4 l 3.2e-4,3e-4 c -0.009,0 -0.0187,-8e-4 -0.0281,-8e-4 l -9.6e-4,0 -1.13417,0 c -1.43118,0 -3.03916,0.3791 -4.22957,1.0167 l 0.005,0 c -2.57926,1.4256 -4.2895204,2.71153 -5.3626304,4.49513 -1.27229,2.1147 -1.3896,4.5096 -1.37974,7.8027 -0.0109,0.9413 0.75074,1.7093 1.69214,1.7065 0.94141,0 1.69829,-0.7755 1.68176,-1.7167 -0.01,-3.184 0.1752104,-4.8535 0.8969104,-6.053 0.55139,-0.9165 1.5737,-1.8047 3.49397,-2.9296 l -1.55081,7.4137 -0.13062,0.6249 c -0.19797,0.9468 -0.066,1.6621 0.46253,2.4812 l 2.93327,4.5464 0.83025,1.2867 1.73324,2.6865 4.97476,7.7105 c 0.71257,1.1406 2.22067,1.4773 3.35072,0.7483 1.13004,-0.7291 1.44486,-2.242 0.69946,-3.3613 l -9.00544,-13.9578 0.82081,-3.4265 0.60083,-2.5079 c 1.72274,3.1285 5.72271,3.9751 8.46025,4.625 0.91302,0.2289 1.83678,-0.3336 2.05251,-1.2498 0.21574,-0.9162 -0.35996,-1.8319 -1.27918,-2.0344 -3.09926,-0.7297 -4.68054,-1.297 -5.67982,-2.2773 -0.52236,-0.5125 -1.03042,-1.2263 -1.42547,-2.3253 -0.39505,-1.099 -0.58,-2.31313 -0.93161,-3.39873 l -0.003,-0.011 -8e-4,8e-4 c -0.35567,-1.0761 -1.37985,-1.8768 -2.53294,-1.8966 z m 53.12949,11.34703 -1.87393,8.9591 -5.95657,6.8792 c -1.11834,1.2548 -0.99375,3.1819 0.27691,4.2822 1.27066,1.1002 3.19594,0.948 4.27785,-0.3383 l 6.48193,-7.4858 c 0.34416,-0.3975 0.5783,-0.8781 0.67916,-1.3942 l 0.73208,-3.7457 -4.61743,-7.1565 z m -31.56612,2.313 -1.63907,7.8361 -5.36087,6.1912 c -1.00651,1.1293 -0.89435,2.8638 0.24925,3.854 1.14359,0.9903 2.8763,0.8531 3.85002,-0.3045 l 5.83378,-6.7373 c 0.30975,-0.3577 0.52045,-0.7903 0.61122,-1.2547 l 0.61377,-3.1403 -4.1581,-6.4445 z m -28.37944,2.314 -1.40389,6.712 -4.7654804,5.5033 c -0.89468,1.0039 -0.79494,2.5457 0.22159,3.4259 1.01653,0.8802 2.55682,0.7584 3.42235,-0.2707 l 5.1854704,-5.9887 c 0.27533,-0.318 0.46274,-0.7025 0.54343,-1.1153 l 0.49514,-2.5337 -3.69861,-5.7328 z" fill="#FFFFFF" fill-opacity="1"/></g></svg>