<svg xmlns:dc="http://purl.org/dc/elements/1.1/" xmlns:cc="http://creativecommons.org/ns#" xmlns:rdf="http://www.w3.org/1999/02/22-rdf-syntax-ns#" xmlns:svg="http://www.w3.org/2000/svg" xmlns="http://www.w3.org/2000/svg" xmlns:sodipodi="http://sodipodi.sourceforge.net/DTD/sodipodi-0.dtd" xmlns:inkscape="http://www.inkscape.org/namespaces/inkscape" version="1.1" x="0px" y="0px" viewBox="0 0 100 100"><g transform="translate(0,-952.36218)"><path style="text-indent:0;text-transform:none;direction:ltr;block-progression:tb;baseline-shift:baseline;color:#FFFFFF;enable-background:accumulate;" d="m 65.56006,959.35328 c -0.15349,0 -0.32115,0.02 -0.46875,0.031 -1.18085,0.091 -2.14835,0.4542 -2.84375,0.8437 -0.34771,0.1948 -0.62302,0.3718 -0.84375,0.5625 -0.11037,0.095 -0.19103,0.2068 -0.28125,0.3125 -0.0902,0.1058 -0.18766,0.1428 -0.28125,0.5 a 1.0001,1.0001 0 0 0 -0.0312,0.1875 c -0.62135,7.3316 -1.84427,12.1338 -3.4375,15.5 -1.59322,3.3663 -3.55146,5.3225 -5.84375,7.0938 -4.07005,3.1449 -9.3176,5.6153 -14.34375,13.2812 l 0,-5.1562 a 1.0021831,0.99802128 0 0 0 -1,-0.9688 l -28.1249995,0 a 1.0021831,0.99802128 0 0 0 -1,0.9688 l -0.0625,48.18752 a 1.0021831,0.99802128 0 0 0 1,1 l 28.1874995,0 a 1.0021831,0.99802128 0 0 0 1,-1 l 0,-2.875 c 0.58543,0.1486 1.34012,0.3399 2.28125,0.5938 1.93693,0.5225 4.55343,1.2323 7.5625,2 6.01813,1.5354 13.61674,3.2985 20.6875,4.25 0.6862,0.092 1.357618,0.1725 2.031248,0.25 0.38239,0.069 0.80644,0.1073 1.21875,0.125 5.78948,0.5873 10.93657,0.4985 14.40625,-1.125 2.05209,-0.9603 3.54403,-2.6409 3.78125,-4.9063 0.2105,-2.0101 -0.45318,-4.3565 -2.03125,-7.1875 1.69062,-0.6091 2.95908,-1.5201 3.78125,-2.6562 1.01567,-1.4035 1.32825,-3.0759 1.1875,-4.6875 -0.22951,-2.6278 -1.58136,-5.15 -3.4375,-6.8125 2.34665,-1.6804 3.60678,-4.7813 3.8125,-7.7188 0.12269,-1.752 -0.13094,-3.4838 -0.875,-4.9375 -0.36562,-0.7143 -0.8739,-1.3648 -1.5,-1.875 0.53739,-0.371 1.01696,-0.8258 1.40625,-1.3438 0.91599,-1.2187 1.44393,-2.75532 1.5,-4.31252 0.0561,-1.5571 -0.37878,-3.1661 -1.4375,-4.4375 -1.05168,-1.2628 -2.71754,-2.129 -4.90625,-2.2812 -2.43449,-0.3302 -5.54866,-0.4278 -8.78125,-0.4375 -1.1145,0 -2.25602,0.016 -3.375,0.031 -0.72491,-5.2328 0.29668,-9.2952 1,-13.2813 0.72602,-4.1146 1.03544,-8.2315 -1.625,-12.9375 a 1.0001,1.0001 0 0 0 -0.0937,-0.1562 c -2.97329,-3.5434 -5.916338,-4.6508 -8.218748,-4.625 z m -0.3125,2 c 1.68876,-0.1304 4.086108,0.4777 6.937498,3.8437 2.34105,4.1899 2.04581,7.5524 1.34375,11.5313 -0.67456,3.823 -1.74512,8.1462 -1.03125,13.6562 -3.56548,0.068 -6.906558,0.1577 -9.187498,0.125 a 1.0001,1.0001 0 0 0 -0.1875,0 c -2.24874,0.3818 -3.92631,1.3379 -5,2.625 -1.07369,1.2872 -1.51195,2.9065 -1.3125,4.4688 0.31976,2.50472 2.16729,4.87442 5.09375,6.09372 -2.10784,1.8066 -3.08669,4.862 -2.6875,7.7501 0.26027,1.883 1.12152,3.7374 2.71875,5.0937 0.76672,0.6511 1.7005,1.1602 2.78125,1.5313 -0.12309,0.096 -0.2565,0.1782 -0.375,0.2812 -1.31462,1.1427 -2.37791,2.7157 -2.84375,4.5 -0.46584,1.7844 -0.2716,3.8203 0.96875,5.5313 0.80355,1.1084 2.01696,2.0522 3.6875,2.7812 -0.55277,0.3779 -1.02599,0.8444 -1.40625,1.375 -1.01412,1.4151 -1.43716,3.2323 -1.3125,5.0313 0.11522,1.6627 0.68465,3.3284 1.78125,4.6875 -6.13279,-0.9809 -12.49068,-2.4554 -17.6875,-3.7813 -2.99102,-0.7631 -5.59031,-1.4763 -7.53125,-2 -0.97047,-0.2618 -1.7911,-0.4696 -2.40625,-0.625 -0.16585,-0.042 -0.27553,-0.06 -0.40625,-0.094 l 0,-34.1876 c 5.31614,-9.62962 10.73497,-11.86352 15.5625,-15.59372 2.43278,-1.8798 4.69944,-4.1715 6.4375,-7.8438 1.71222,-3.6176 2.9516,-8.5495 3.59375,-15.8437 0.10577,-0.086 0.26167,-0.1965 0.46875,-0.3125 0.47242,-0.2646 1.14957,-0.5593 2,-0.625 z m 12.749998,30.9687 c 3.1689,0.01 6.15521,0.1301 8.40625,0.4375 a 1.0001,1.0001 0 0 0 0.0625,0 c 1.77475,0.1154 2.87057,0.7317 3.5625,1.5625 0.69193,0.8309 1.01018,1.9435 0.96875,3.0938 -0.0414,1.1503 -0.45034,2.3002 -1.09375,3.15622 -0.64342,0.8561 -1.47193,1.3916 -2.46875,1.4688 a 1.0001,1.0001 0 0 0 -0.125,0.031 1.0001,1.0001 0 0 0 -0.125,0.031 c -3.70861,0.8745 -8.95815,0.9441 -13.40625,0.7812 -2.24239,-0.082 -4.29135,-0.2287 -5.874998,-0.3437 -1.58365,-0.115 -2.54291,-0.2128 -3.15625,-0.1875 a 1.0001,1.0001 0 0 0 -0.15625,0.031 c -3.57567,-0.6108 -5.51014,-2.90772 -5.78125,-5.03132 -0.13555,-1.0617 0.12617,-2.0772 0.84375,-2.9375 0.7076,-0.8482 1.90833,-1.5791 3.75,-1.9062 3.55955,0.045 9.312248,-0.2028 14.593748,-0.1875 z m -68.9374975,1.1875 26.1249995,0 0,7.59382 a 1.0001,1.0001 0 0 0 0,0.4062 l 0,34.8126 a 1.0001,1.0001 0 0 0 0,0.094 1.0001,1.0001 0 0 0 0,0.2813 1.0001,1.0001 0 0 0 0,0.094 l 0,2.9063 -26.1874995,0 0.0625,-46.18762 z m 78.4687475,10.53132 c 1.07024,0.2417 1.7759,0.8877 2.28125,1.875 0.52596,1.0276 0.75856,2.4454 0.65625,3.9063 -0.20075,2.8665 -1.71894,5.7773 -3.90625,6.7187 l -17.65625,0.1563 c -0.20415,-0.032 -0.390878,-0.029 -0.593748,-0.031 -0.0624,-6e-4 -0.12525,0 -0.1875,0 -2.22665,-0.086 -3.78342,-0.7293 -4.875,-1.6563 -1.19093,-1.0113 -1.86027,-2.3807 -2.0625,-3.8437 -0.40077,-2.8994 1.0888,-5.9804 3.5,-6.8126 a 1.0001,1.0001 0 0 0 0.125,0 c 0.11167,-0.01 1.37674,0.072 2.96875,0.1875 1.592018,0.1156 3.657328,0.2603 5.937498,0.3438 4.48329,0.1641 9.74404,0.096 13.8125,-0.8438 z m -1,14.5 c 1.73339,1.1639 3.3555,3.755 3.5625,6.125 0.10799,1.2366 -0.11659,2.3821 -0.8125,3.3438 -0.684,0.9452 -1.84602,1.7676 -3.78125,2.25 l -15.90625,-0.094 c -2.975808,-0.6622 -4.647338,-1.7925 -5.499998,-2.9687 -0.86499,-1.1932 -1.00417,-2.5111 -0.65625,-3.8438 0.34793,-1.3327 1.20616,-2.6198 2.21875,-3.5 1.0126,-0.8801 2.13567,-1.2809 2.9375,-1.1562 0.0623,2e-4 0.124578,5e-4 0.187498,0 l 17.75,-0.1563 z m -17.25,13.625 a 1.0001,1.0001 0 0 0 0.3125,0 l 15.46875,0.094 c 1.69658,2.8939 2.24965,5.0737 2.09375,6.5625 -0.16434,1.5693 -0.99454,2.5183 -2.625,3.2812 -2.94698,1.379 -8.41742,1.4926 -14.5625,0.8125 -1.28662,-0.2542 -2.239498,-0.8508 -2.968748,-1.6562 -0.93458,-1.0322 -1.4659,-2.4185 -1.5625,-3.8125 -0.0966,-1.394 0.25191,-2.7621 0.9375,-3.7188 0.65042,-0.9076 1.5537,-1.5123 2.906248,-1.5625 z" fill="#FFFFFF" fill-opacity="1" fill-rule="evenodd" stroke="none" marker="none" visibility="visible" display="inline" overflow="visible"/></g></svg>