<svg xmlns="http://www.w3.org/2000/svg" data-name="Layer 1" viewBox="0 0 100 100" x="0px" y="0px"><title>87all</title><path fill="#FFFFFF" d="M62.32,94.08a8.38,8.38,0,0,0,8.37-8.37V50.9a8.38,8.38,0,0,0-16.75,0V85.71a8.38,8.38,0,0,0,8.37,8.37Zm-3.38-8.37V50.9a3.38,3.38,0,0,1,6.75,0V85.71a3.37,3.37,0,0,1-3.37,3.37h0A3.37,3.37,0,0,1,58.94,85.71Z"/><path fill="#FFFFFF"  d="M37.32,94.08a8.38,8.38,0,0,0,8.37-8.37V60.9a8.38,8.38,0,0,0-16.75,0V85.71a8.38,8.38,0,0,0,8.37,8.37Zm-3.38-8.37V60.9a3.38,3.38,0,0,1,6.75,0V85.71a3.37,3.37,0,0,1-3.37,3.37h0A3.37,3.37,0,0,1,33.94,85.71Z"/><path fill="#FFFFFF"  d="M87.31,32.53a8.38,8.38,0,0,0-8.37,8.37V85.71a8.38,8.38,0,0,0,8.37,8.37h0a8.38,8.38,0,0,0,8.37-8.37V40.9A8.38,8.38,0,0,0,87.31,32.53Zm3.38,53.18a3.37,3.37,0,0,1-3.37,3.37h0a3.37,3.37,0,0,1-3.37-3.37V40.9a3.38,3.38,0,0,1,6.75,0Z"/><path fill="#FFFFFF"  d="M12.68,94.08h0a8.38,8.38,0,0,0,8.37-8.37V70.9a8.38,8.38,0,0,0-16.75,0V85.71A8.38,8.38,0,0,0,12.68,94.08ZM9.31,70.9a3.38,3.38,0,0,1,6.75,0V85.71a3.37,3.37,0,0,1-3.37,3.37h0a3.37,3.37,0,0,1-3.37-3.37Z"/><path fill="#FFFFFF"  d="M80.56,25.42A2.5,2.5,0,0,0,83,24.56l8.59-10.38a2.5,2.5,0,0,0-1.15-4L77.62,6a2.5,2.5,0,0,0-3.17,3.07l1.33,4.58-52.64,17a9.48,9.48,0,1,0,1.23,4.86L77.17,18.5l1.5,5.16A2.5,2.5,0,0,0,80.56,25.42Zm4.83-11.59-3.24,3.91-1.59-5.48ZM16.12,39.71a4.5,4.5,0,1,1,3.07-5.58A4.51,4.51,0,0,1,16.12,39.71Z"/></svg>