<svg xmlns="http://www.w3.org/2000/svg" xmlns:xlink="http://www.w3.org/1999/xlink" version="1.1" x="0px" y="0px" viewBox="0 0 128 160" enable-background="new 0 0 128 128" xml:space="preserve"><g><path fill="#FFFFFF"  d="M93.8,23.7h19.5c0.4,0,0.7-0.3,0.7-0.7c0-0.4-0.3-0.7-0.7-0.7H93.8c-0.4,0-0.7,0.3-0.7,0.7C93.1,23.3,93.4,23.7,93.8,23.7z   "/><path fill="#FFFFFF"  d="M109.4,27.4H97.7c-0.4,0-0.7,0.3-0.7,0.7c0,0.4,0.3,0.7,0.7,0.7h11.7c0.4,0,0.7-0.3,0.7-0.7   C110.2,27.7,109.8,27.4,109.4,27.4z"/><path fill="#FFFFFF"  d="M17.6,30.2c-2.1,0-3.8,1.7-3.8,3.8v58.2c0,0.4,0.3,0.7,0.7,0.7H113c0.4,0,0.7-0.3,0.7-0.7V35.7h4c1.7,0,3-1.3,3-3V18.1   c0-1.7-1.3-3-3-3H89.4c-1.7,0-3,1.3-3,3v12.1H17.6z M112.2,91.5h-97V34c0-1.3,1.1-2.4,2.4-2.4h68.8v1c0,1.7,1.3,3,3,3h1.7l0,3.2   c0,0.3,0.2,0.5,0.4,0.7c0.1,0,0.2,0.1,0.3,0.1c0.2,0,0.3-0.1,0.5-0.2l4.9-3.8h15.1V91.5z M87.9,18.1c0-0.8,0.7-1.5,1.5-1.5h28.3   c0.8,0,1.5,0.7,1.5,1.5v14.6c0,0.8-0.7,1.5-1.5,1.5H96.9c-0.2,0-0.3,0.1-0.5,0.2l-3.9,3l0-2.4c0-0.4-0.3-0.7-0.7-0.7h-2.4   c-0.8,0-1.5-0.7-1.5-1.5V18.1z"/><path fill="#FFFFFF"  d="M122.9,96.2H4.6c-0.5,0-0.9,0.3-1.1,0.7c-0.2,0.4-0.2,0.9,0,1.3l1.2,1.9c2,3.3,5.6,5.4,9.5,5.4h99.2c3.9,0,7.5-2.1,9.5-5.4   l1.2-1.9c0.2-0.4,0.3-0.9,0-1.3C123.8,96.5,123.3,96.2,122.9,96.2z M121.6,99.4c-1.7,2.9-4.9,4.7-8.3,4.7H14.1   c-3.4,0-6.5-1.8-8.3-4.7l-1-1.7h117.7L121.6,99.4z"/><path fill="#FFFFFF"  d="M3,49.4c0.4,0,0.7-0.3,0.7-0.7V39c0-0.4-0.3-0.7-0.7-0.7c-0.4,0-0.7,0.3-0.7,0.7v9.7C2.3,49.1,2.6,49.4,3,49.4z"/><path fill="#FFFFFF"  d="M3,57.4c0.4,0,0.7-0.3,0.7-0.7v-3.5c0-0.4-0.3-0.7-0.7-0.7c-0.4,0-0.7,0.3-0.7,0.7v3.5C2.3,57.1,2.6,57.4,3,57.4z"/><path fill="#FFFFFF"  d="M120.1,55.5v9.7c0,0.4,0.3,0.7,0.7,0.7c0.4,0,0.7-0.3,0.7-0.7v-9.7c0-0.4-0.3-0.7-0.7-0.7   C120.4,54.8,120.1,55.1,120.1,55.5z"/><path fill="#FFFFFF"  d="M120.8,69c-0.4,0-0.7,0.3-0.7,0.7v3.5c0,0.4,0.3,0.7,0.7,0.7c0.4,0,0.7-0.3,0.7-0.7v-3.5C121.6,69.4,121.2,69,120.8,69z"/><path fill="#FFFFFF"  d="M34.2,109.6c-2,0-3.7,1.7-3.7,3.7c0,2,1.7,3.7,3.7,3.7c2,0,3.7-1.7,3.7-3.7C37.9,111.3,36.2,109.6,34.2,109.6z M34.2,115.6   c-1.2,0-2.2-1-2.2-2.2c0-1.2,1-2.2,2.2-2.2c1.2,0,2.2,1,2.2,2.2C36.4,114.6,35.4,115.6,34.2,115.6z"/><path fill="#FFFFFF"  d="M75.6,23.9c2,0,3.7-1.7,3.7-3.7c0-2-1.7-3.7-3.7-3.7c-2,0-3.7,1.7-3.7,3.7C71.9,22.2,73.6,23.9,75.6,23.9z M75.6,18   c1.2,0,2.2,1,2.2,2.2c0,1.2-1,2.2-2.2,2.2c-1.2,0-2.2-1-2.2-2.2C73.4,18.9,74.4,18,75.6,18z"/><path fill="#FFFFFF"  d="M14.2,15.8c0,0.4,0.3,0.7,0.7,0.7H27c0.4,0,0.7-0.3,0.7-0.7c0-0.4-0.3-0.7-0.7-0.7H15C14.6,15.1,14.2,15.4,14.2,15.8z"/><path fill="#FFFFFF"  d="M7.1,16.6H11c0.4,0,0.7-0.3,0.7-0.7c0-0.4-0.3-0.7-0.7-0.7H7.1c-0.4,0-0.7,0.3-0.7,0.7C6.4,16.3,6.7,16.6,7.1,16.6z"/><path fill="#FFFFFF"  d="M7.1,12.4h8.4c0.4,0,0.7-0.3,0.7-0.7c0-0.4-0.3-0.7-0.7-0.7H7.1c-0.4,0-0.7,0.3-0.7,0.7C6.4,12.1,6.7,12.4,7.1,12.4z"/><path fill="#FFFFFF"  d="M19.1,12.4h2.7c0.4,0,0.7-0.3,0.7-0.7c0-0.4-0.3-0.7-0.7-0.7h-2.7c-0.4,0-0.7,0.3-0.7,0.7C18.4,12.1,18.7,12.4,19.1,12.4z"/><path fill="#FFFFFF"  d="M88.4,111.7c0-0.4-0.3-0.7-0.7-0.7H75.6c-0.4,0-0.7,0.3-0.7,0.7c0,0.4,0.3,0.7,0.7,0.7h12.1   C88.1,112.5,88.4,112.2,88.4,111.7z"/><path fill="#FFFFFF"  d="M95.5,111h-3.9c-0.4,0-0.7,0.3-0.7,0.7c0,0.4,0.3,0.7,0.7,0.7h3.9c0.4,0,0.7-0.3,0.7-0.7C96.3,111.3,95.9,111,95.5,111z"/><path fill="#FFFFFF"  d="M95.5,115.1h-8.4c-0.4,0-0.7,0.3-0.7,0.7c0,0.4,0.3,0.7,0.7,0.7h8.4c0.4,0,0.7-0.3,0.7-0.7   C96.3,115.5,95.9,115.1,95.5,115.1z"/><path fill="#FFFFFF"  d="M83.5,115.1h-2.7c-0.4,0-0.7,0.3-0.7,0.7c0,0.4,0.3,0.7,0.7,0.7h2.7c0.4,0,0.7-0.3,0.7-0.7   C84.2,115.5,83.9,115.1,83.5,115.1z"/><path fill="#FFFFFF"  d="M120.6,107.3c-0.3-0.3-0.8-0.3-1,0c-0.3,0.3-0.3,0.8,0,1l1.6,1.6c0.1,0.1,0.3,0.2,0.5,0.2c0.2,0,0.4-0.1,0.5-0.2   c0.3-0.3,0.3-0.8,0-1L120.6,107.3z"/><path fill="#FFFFFF"  d="M125.7,112.5c-0.3-0.3-0.8-0.3-1,0c-0.3,0.3-0.3,0.8,0,1l1.6,1.6c0.1,0.1,0.3,0.2,0.5,0.2c0.2,0,0.4-0.1,0.5-0.2   c0.3-0.3,0.3-0.8,0-1L125.7,112.5z"/><path fill="#FFFFFF"  d="M121.1,112.5l-1.6,1.6c-0.3,0.3-0.3,0.8,0,1c0.1,0.1,0.3,0.2,0.5,0.2c0.2,0,0.4-0.1,0.5-0.2l1.6-1.6c0.3-0.3,0.3-0.8,0-1   C121.9,112.2,121.4,112.2,121.1,112.5z"/><path fill="#FFFFFF"  d="M125.2,110.2c0.2,0,0.4-0.1,0.5-0.2l1.6-1.6c0.3-0.3,0.3-0.8,0-1c-0.3-0.3-0.8-0.3-1,0l-1.6,1.6c-0.3,0.3-0.3,0.8,0,1   C124.8,110.1,125,110.2,125.2,110.2z"/><path fill="#FFFFFF"  d="M53.6,14.6c0.1,0.1,0.3,0.2,0.5,0.2c0.2,0,0.4-0.1,0.5-0.2c0.3-0.3,0.3-0.8,0-1L53,12c-0.3-0.3-0.8-0.3-1,0s-0.3,0.8,0,1   L53.6,14.6z"/><path fill="#FFFFFF"  d="M58.7,19.7c0.1,0.1,0.3,0.2,0.5,0.2c0.2,0,0.4-0.1,0.5-0.2c0.3-0.3,0.3-0.8,0-1l-1.6-1.6c-0.3-0.3-0.8-0.3-1,0   c-0.3,0.3-0.3,0.8,0,1L58.7,19.7z"/><path fill="#FFFFFF"  d="M52.5,19.9c0.2,0,0.4-0.1,0.5-0.2l1.6-1.6c0.3-0.3,0.3-0.8,0-1c-0.3-0.3-0.8-0.3-1,0L52,18.7c-0.3,0.3-0.3,0.8,0,1   C52.1,19.9,52.3,19.9,52.5,19.9z"/><path fill="#FFFFFF"  d="M57.6,14.8c0.2,0,0.4-0.1,0.5-0.2l1.6-1.6c0.3-0.3,0.3-0.8,0-1c-0.3-0.3-0.8-0.3-1,0l-1.6,1.6c-0.3,0.3-0.3,0.8,0,1   C57.3,14.7,57.5,14.8,57.6,14.8z"/><path fill="#FFFFFF"  d="M2.3,79c0.1,0.1,0.3,0.2,0.5,0.2c0.2,0,0.4-0.1,0.5-0.2c0.3-0.3,0.3-0.8,0-1l-1.6-1.6c-0.3-0.3-0.8-0.3-1,0   c-0.3,0.3-0.3,0.8,0,1L2.3,79z"/><path fill="#FFFFFF"  d="M7.4,84.2c0.1,0.1,0.3,0.2,0.5,0.2c0.2,0,0.4-0.1,0.5-0.2c0.3-0.3,0.3-0.8,0-1l-1.6-1.6c-0.3-0.3-0.8-0.3-1,0s-0.3,0.8,0,1   L7.4,84.2z"/><path fill="#FFFFFF"  d="M3.3,81.6c-0.3-0.3-0.8-0.3-1,0l-1.6,1.6c-0.3,0.3-0.3,0.8,0,1c0.1,0.1,0.3,0.2,0.5,0.2c0.2,0,0.4-0.1,0.5-0.2l1.6-1.6   C3.6,82.3,3.6,81.8,3.3,81.6z"/><path fill="#FFFFFF"  d="M6.4,79.3c0.2,0,0.4-0.1,0.5-0.2l1.6-1.6c0.3-0.3,0.3-0.8,0-1c-0.3-0.3-0.8-0.3-1,0L5.9,78c-0.3,0.3-0.3,0.8,0,1   C6,79.2,6.2,79.3,6.4,79.3z"/><path fill="#FFFFFF"  d="M89.3,51L66,41.7c-1.4-0.6-3.2-0.6-4.6,0L38.1,51c-0.8,0.3-1.3,1-1.3,1.7c0,0.8,0.5,1.4,1.3,1.7l8.5,3.4v12.9   c0,0.4,0.3,0.7,0.7,0.7c0.1,0,9.4,0.2,15.8,7.5c0.1,0.2,0.3,0.2,0.6,0.2c0.2,0,0.4-0.1,0.6-0.2c6.4-7.3,15.7-7.5,15.8-7.5   c0.4,0,0.7-0.3,0.7-0.7V57.8l4.3-1.7v17c-1.4,0.2-2.4,1.4-2.4,2.8v5.3c0,0.4,0.3,0.7,0.7,0.7h4.9c0.4,0,0.7-0.3,0.7-0.7v-5.3   c0-1.4-1.1-2.6-2.4-2.8V55.5l2.7-1.1c0.8-0.3,1.3-1,1.3-1.7C90.6,51.9,90.1,51.3,89.3,51z M87.6,75.9v4.6h-3.4v-4.6   c0-0.8,0.6-1.4,1.4-1.4h0.6C86.9,74.5,87.6,75.1,87.6,75.9z M79.3,70c-2.3,0.2-9.8,1.2-15.6,7.3c-5.8-6.1-13.3-7.2-15.6-7.3V58.4   l13.3,5.3c0.7,0.3,1.5,0.4,2.3,0.4c0.8,0,1.6-0.1,2.3-0.4l13.3-5.3V70z M88.8,53.1l-8.9,3.5c0,0-0.1,0-0.1,0.1l-14.3,5.7   c-1.1,0.4-2.4,0.4-3.5,0l-14.3-5.7c0,0-0.1,0-0.1-0.1l-8.9-3.5c-0.2-0.1-0.4-0.2-0.4-0.4c0-0.1,0.1-0.3,0.4-0.4L62,43.1   c0.5-0.2,1.2-0.3,1.8-0.3c0.6,0,1.2,0.1,1.8,0.3l23.3,9.3c0.2,0.1,0.4,0.2,0.4,0.4C89.1,52.8,89,53,88.8,53.1z"/></g></svg>