<svg xmlns="http://www.w3.org/2000/svg" viewBox="0 0 100.3 95.75" x="0px" y="0px"><title>Asset 9</title><g data-name="Layer 2"><g data-name="Layer 1"><path fill="#FFFFFF" d="M87.08,28.86h-2A12.13,12.13,0,0,0,73,41v2.3l-3.31,6.37A1.57,1.57,0,0,0,71,52h3v5.09a4.9,4.9,0,0,0,4.77,4.61H79V66a2,2,0,0,0,2,2H92a2,2,0,0,0,2-2V56.13a13.17,13.17,0,0,0,6.3-11.23V42.07A13.23,13.23,0,0,0,87.08,28.86Z"/><path fill="#FFFFFF"  d="M27.3,43.2V41A12.13,12.13,0,0,0,15.18,28.86h-2A13.23,13.23,0,0,0,0,42.07v2.84A12.92,12.92,0,0,0,6,56.13V66a2,2,0,0,0,2,2H21a2,2,0,0,0,2-2V62c2.55,0,3.94-2.5,4-5V52h3.43a1.57,1.57,0,0,0,1.36-.79,1.6,1.6,0,0,0,0-1.64ZM26,50a1,1,0,0,0-1,1v6c0,1.22-.59,3-2,3H22a1,1,0,0,0-1,1v5H8V55.56a1,1,0,0,0-.52-.88A10.9,10.9,0,0,1,2,44.91V42.07A11.23,11.23,0,0,1,13.21,30.86h2A10.12,10.12,0,0,1,25.3,41v2.54a1,1,0,0,0,.18.57L29.6,50Z"/><path fill="#FFFFFF"  d="M70.6,24.51a1,1,0,0,0,.1-1.11l-3.53-6.35A12.94,12.94,0,0,0,54.9,0a12.92,12.92,0,0,0-7.63,2.49h-.13A12.69,12.69,0,0,0,36.31,21.8L34.08,27a1,1,0,0,0,1.3,1.32l5.3-2.18A12.67,12.67,0,0,0,54,25.84h0a8.82,8.82,0,0,0,.89,0,12.9,12.9,0,0,0,8.23-3l6.41,1.92A1,1,0,0,0,70.6,24.51ZM49.92,16h10a1,1,0,1,1,0,2h-10a1,1,0,0,1,0-2Zm-1-3a1,1,0,0,1,1-1h10a1,1,0,1,1,0,2h-10A1,1,0,0,1,48.92,13Zm11-3h-10a1,1,0,1,1,0-2h10a1,1,0,1,1,0,2ZM41.31,24.14a1,1,0,0,0-.92-.09l-3.5,1.44,1.47-3.4a1,1,0,0,0-.09-1A10.69,10.69,0,0,1,44.9,4.73h0a12.94,12.94,0,0,0,5.9,20.49,10.68,10.68,0,0,1-9.49-1.07Z"/><path fill="#FFFFFF"  d="M61,63H58V62a1,1,0,0,0-2,0v1H54V62a1,1,0,0,0-2,0v1H50V62a1,1,0,0,0-2,0v1H46V62a1,1,0,0,0-2,0v1H41a2,2,0,0,0-2,2V69s0,0,0,0V89a2,2,0,0,0,2,2H61a2,2,0,0,0,2-2V65a2,2,0,0,0-.59-1.42A2,2,0,0,0,61,63ZM58,82H44.08a1,1,0,0,1,0-2H58a1,1,0,0,1,0,2Zm1,3a1,1,0,0,1-1,1H44a1,1,0,0,1,0-2H58A1,1,0,0,1,59,85ZM43,73a1,1,0,0,1,1-1H54a1,1,0,0,1,0,2H44A1,1,0,0,1,43,73Zm15,5H44.08a1,1,0,0,1,0-2H58a1,1,0,0,1,0,2ZM41,65h3v0a1,1,0,0,0,2,0v0h2v0a1,1,0,0,0,2,0v0h2v0a1,1,0,0,0,2,0v0h2v0a1,1,0,0,0,2,0v0h3v3H41Z"/></g></g></svg>