<svg xmlns="http://www.w3.org/2000/svg" xmlns:xlink="http://www.w3.org/1999/xlink" version="1.1" x="0px" y="0px" viewBox="0 0 64 65" style="enable-background:new 0 0 64 64;" xml:space="preserve"><path fill="#FFFFFF" d="M3,62h30c0.553,0,1-0.447,1-1v-4c0-0.013-0.007-0.024-0.008-0.037c-0.004-0.11-0.02-0.22-0.061-0.325l-0.01-0.025  c-0.001-0.001-0.001-0.002-0.001-0.004l-1.025-2.638c-0.148-0.381-0.285-0.766-0.421-1.151l-0.032-0.089  C32.791,52.24,33,51.645,33,51c0-0.233-0.033-0.457-0.083-0.675l0.96-0.96c0.041,0.017,0.082,0.034,0.123,0.051V51  c0,0.553,0.447,1,1,1h4c0.553,0,1-0.447,1-1v-1.584c0.041-0.017,0.082-0.034,0.123-0.051l1.12,1.12c0.391,0.391,1.023,0.391,1.414,0  l2.828-2.828c0.391-0.391,0.391-1.023,0-1.414l-1.12-1.12c0.017-0.041,0.034-0.082,0.051-0.123H46c0.553,0,1-0.447,1-1v-4  c0-0.553-0.447-1-1-1h-1.584c-0.017-0.041-0.034-0.082-0.051-0.123l1.12-1.119c0.188-0.188,0.293-0.441,0.293-0.707  c0-0.265-0.105-0.52-0.293-0.707l-2.828-2.829c-0.188-0.188-0.441-0.293-0.707-0.293s-0.52,0.105-0.707,0.293l-1.12,1.12  c-0.041-0.017-0.082-0.034-0.123-0.051V33c0-0.553-0.447-1-1-1h-4c-0.553,0-1,0.447-1,1v1.584c-0.041,0.017-0.082,0.034-0.123,0.051  l-1.12-1.12c-0.375-0.375-1.039-0.375-1.414,0l-2.828,2.829c-0.17,0.17-0.261,0.397-0.279,0.635C27.424,32.206,27,27.383,27,22.548  V21v-3.764l1.895-3.789l-0.009-0.005C28.953,13.308,29,13.161,29,13V3c0-0.553-0.447-1-1-1h-4c-0.553,0-1,0.447-1,1v3h-2V3  c0-0.553-0.447-1-1-1h-4c-0.553,0-1,0.447-1,1v3h-2V3c0-0.553-0.447-1-1-1H8C7.447,2,7,2.447,7,3v10  c0,0.161,0.047,0.308,0.115,0.443l-0.009,0.005L9,17.236V21v1.548c0,8.648-1.317,17.258-3.9,25.605C3.887,48.538,3,49.661,3,51  c0,0.645,0.209,1.24,0.557,1.73l-0.032,0.089c-0.136,0.386-0.272,0.771-0.42,1.151l-1.026,2.639c0,0.001-0.001,0.002-0.001,0.003  l-0.01,0.025c-0.041,0.105-0.057,0.215-0.061,0.325C2.007,56.976,2,56.987,2,57v4C2,61.553,2.447,62,3,62z M32,60H4v-2h28V60z   M4.97,54.695c0.102-0.262,0.197-0.525,0.292-0.79c0.014,0.004,0.03,0.002,0.044,0.006C5.53,53.964,5.76,54,6,54h24  c0.24,0,0.47-0.036,0.694-0.089c0.015-0.004,0.03-0.002,0.044-0.006c0.095,0.265,0.19,0.528,0.292,0.79c0.001,0,0.001,0,0.001,0  L31.538,56H4.462L4.97,54.695z M5.958,50.008c0.003,0,0.006,0.001,0.009,0C5.979,50.008,6.015,50.004,6.044,50h23.913  c0.028,0.003,0.061,0.007,0.076,0.009c0.005,0,0.009,0,0.014,0C30.575,50.035,31,50.465,31,51c0,0.353-0.194,0.649-0.471,0.827  C30.398,51.916,30.23,52,30,52H6c-0.23,0-0.398-0.084-0.529-0.173C5.194,51.649,5,51.353,5,51C5,50.463,5.427,50.032,5.958,50.008z   M31.549,37.963l-0.913-0.912l1.414-1.415l0.913,0.913c0.313,0.313,0.796,0.382,1.185,0.172c0.349-0.189,0.731-0.347,1.139-0.469  C35.71,36.126,36,35.736,36,35.294V34h2v1.294c0,0.442,0.29,0.832,0.714,0.958c0.407,0.122,0.79,0.279,1.139,0.469  c0.389,0.21,0.871,0.142,1.185-0.172l0.913-0.913l1.414,1.415l-0.913,0.912c-0.313,0.313-0.383,0.795-0.172,1.185  c0.189,0.349,0.347,0.731,0.469,1.139C42.874,40.71,43.264,41,43.706,41H45v2h-1.294c-0.442,0-0.832,0.29-0.958,0.714  c-0.122,0.407-0.279,0.79-0.469,1.139c-0.211,0.39-0.142,0.871,0.172,1.185l0.913,0.913l-1.414,1.414l-0.913-0.913  c-0.313-0.313-0.795-0.381-1.185-0.172c-0.349,0.189-0.731,0.347-1.139,0.469C38.29,47.874,38,48.264,38,48.706V50h-2v-1.294  c0-0.442-0.29-0.832-0.714-0.958c-0.407-0.122-0.79-0.279-1.139-0.469c-0.39-0.21-0.871-0.143-1.185,0.172l-0.913,0.913  l-1.413-1.414l0.912-0.913c0.313-0.313,0.383-0.795,0.172-1.185c-0.189-0.349-0.347-0.731-0.469-1.139  C31.126,43.29,30.736,43,30.294,43h-0.811c-0.162-0.665-0.316-1.332-0.463-2h1.273c0.442,0,0.832-0.29,0.958-0.714  c0.122-0.407,0.279-0.79,0.469-1.139C31.932,38.758,31.862,38.275,31.549,37.963z M28.515,37.758l1.12,1.119  c-0.017,0.041-0.034,0.082-0.051,0.123H28.59c-0.099-0.509-0.178-1.02-0.268-1.53C28.371,37.574,28.431,37.674,28.515,37.758z   M25.382,16H10.618l-1-2h16.764L25.382,16z M11,18h14v2H11V18z M9,4h2v3c0,0.553,0.447,1,1,1h4c0.553,0,1-0.447,1-1V4h2v3  c0,0.553,0.447,1,1,1h4c0.553,0,1-0.447,1-1V4h2v8H9V4z M11,22.548V22h14v0.548c0,8.591,1.263,17.146,3.753,25.452H7.247  C9.737,39.694,11,31.139,11,22.548z"/><path fill="#FFFFFF"  d="M37,47c2.757,0,5-2.243,5-5s-2.243-5-5-5s-5,2.243-5,5S34.243,47,37,47z M37,39c1.654,0,3,1.346,3,3s-1.346,3-3,3  s-3-1.346-3-3S35.346,39,37,39z"/><path fill="#FFFFFF"  d="M52,17c-2.757,0-5,2.243-5,5s2.243,5,5,5s5-2.243,5-5S54.757,17,52,17z M52,25c-1.654,0-3-1.346-3-3s1.346-3,3-3  s3,1.346,3,3S53.654,25,52,25z"/><path fill="#FFFFFF"  d="M61,19h-1.584c-0.017-0.041-0.034-0.082-0.051-0.123l1.12-1.119c0.188-0.188,0.293-0.441,0.293-0.707  c0-0.265-0.105-0.52-0.293-0.707l-2.828-2.829c-0.188-0.188-0.441-0.293-0.707-0.293s-0.52,0.105-0.707,0.293l-1.12,1.12  c-0.041-0.017-0.082-0.034-0.123-0.051V13c0-0.553-0.447-1-1-1h-4c-0.553,0-1,0.447-1,1v1.584c-0.041,0.017-0.082,0.034-0.123,0.051  l-1.12-1.12c-0.375-0.375-1.039-0.375-1.414,0l-2.828,2.829c-0.188,0.188-0.293,0.442-0.293,0.707c0,0.266,0.105,0.52,0.293,0.707  l1.12,1.119c-0.017,0.041-0.034,0.082-0.051,0.123H43c-0.553,0-1,0.447-1,1v4c0,0.553,0.447,1,1,1h1.584  c0.017,0.041,0.034,0.082,0.051,0.123l-1.12,1.12c-0.391,0.391-0.391,1.023,0,1.414l2.828,2.828c0.391,0.391,1.023,0.391,1.414,0  l1.12-1.12c0.041,0.017,0.082,0.034,0.123,0.051V31c0,0.553,0.447,1,1,1h4c0.553,0,1-0.447,1-1v-1.584  c0.041-0.017,0.082-0.034,0.123-0.051l1.12,1.12c0.391,0.391,1.023,0.391,1.414,0l2.828-2.828c0.391-0.391,0.391-1.023,0-1.414  l-1.12-1.12c0.017-0.041,0.034-0.082,0.051-0.123H61c0.553,0,1-0.447,1-1v-4C62,19.447,61.553,19,61,19z M60,23h-1.294  c-0.442,0-0.832,0.29-0.958,0.714c-0.122,0.407-0.279,0.79-0.469,1.139c-0.211,0.39-0.142,0.871,0.172,1.185l0.913,0.913  l-1.414,1.414l-0.913-0.913c-0.313-0.313-0.794-0.381-1.185-0.172c-0.349,0.189-0.731,0.347-1.139,0.469  C53.29,27.874,53,28.264,53,28.706V30h-2v-1.294c0-0.442-0.29-0.832-0.714-0.958c-0.407-0.122-0.79-0.279-1.139-0.469  c-0.389-0.21-0.871-0.143-1.185,0.172l-0.913,0.913l-1.414-1.414l0.913-0.913c0.313-0.313,0.383-0.795,0.172-1.185  c-0.189-0.349-0.347-0.731-0.469-1.139C46.126,23.29,45.736,23,45.294,23H44v-2h1.294c0.442,0,0.832-0.29,0.958-0.714  c0.122-0.407,0.279-0.79,0.469-1.139c0.211-0.39,0.142-0.872-0.172-1.185l-0.913-0.912l1.414-1.415l0.913,0.913  c0.314,0.313,0.797,0.382,1.185,0.172c0.349-0.189,0.731-0.347,1.139-0.469C50.71,16.126,51,15.736,51,15.294V14h2v1.294  c0,0.442,0.29,0.832,0.714,0.958c0.407,0.122,0.79,0.279,1.139,0.469c0.39,0.21,0.87,0.142,1.185-0.172l0.913-0.913l1.414,1.415  l-0.913,0.912c-0.313,0.313-0.383,0.795-0.172,1.185c0.189,0.349,0.347,0.731,0.469,1.139C57.874,20.71,58.264,21,58.706,21H60V23z"/><path fill="#FFFFFF"  d="M44.38,59.061l0.58,1.914c0.637-0.192,1.271-0.414,1.884-0.657l-0.738-1.859C45.544,58.682,44.964,58.884,44.38,59.061z"/><path fill="#FFFFFF"  d="M40.806,59.823l0.252,1.984c0.655-0.084,1.317-0.196,1.967-0.334l-0.416-1.957C42.013,59.644,41.405,59.747,40.806,59.823z"/><path fill="#FFFFFF"  d="M57.861,47.472l1.803,0.865c0.285-0.594,0.55-1.212,0.787-1.838l-1.871-0.707C58.364,46.363,58.122,46.929,57.861,47.472z"/><path fill="#FFFFFF"  d="M59.796,34.992c0.083,0.601,0.141,1.213,0.173,1.82l1.998-0.105c-0.036-0.663-0.1-1.331-0.188-1.986L59.796,34.992z"/><path fill="#FFFFFF"  d="M61.851,40.693c0.073-0.658,0.12-1.328,0.14-1.99l-2-0.059c-0.018,0.608-0.061,1.223-0.128,1.826L61.851,40.693z"/><path fill="#FFFFFF"  d="M49.378,56.833c-0.52,0.314-1.06,0.611-1.604,0.882l0.893,1.791c0.593-0.296,1.18-0.619,1.746-0.962L49.378,56.833z"/><path fill="#FFFFFF"  d="M52.337,54.687c-0.46,0.395-0.943,0.776-1.438,1.135l1.176,1.619c0.537-0.391,1.063-0.807,1.564-1.236L52.337,54.687z"/><path fill="#FFFFFF"  d="M56.016,50.629l1.635,1.152c0.38-0.538,0.743-1.104,1.08-1.682l-1.727-1.008C56.695,49.62,56.362,50.137,56.016,50.629z"/><path fill="#FFFFFF"  d="M59.156,44.055l1.922,0.551c0.182-0.634,0.339-1.287,0.469-1.941l-1.963-0.387C59.466,42.877,59.322,43.475,59.156,44.055z"/><path fill="#FFFFFF"  d="M53.674,53.438l1.426,1.404c0.467-0.475,0.918-0.973,1.34-1.479l-1.537-1.279C54.516,52.547,54.103,53.003,53.674,53.438z"/><path fill="#FFFFFF"  d="M30.41,21.254l1.963,0.387c0.118-0.6,0.262-1.197,0.428-1.777l-1.922-0.551C30.697,19.946,30.54,20.6,30.41,21.254z"/><path fill="#FFFFFF"  d="M38.282,10.48l-1.426-1.404c-0.467,0.475-0.918,0.973-1.34,1.479l1.537,1.279C37.44,11.371,37.854,10.915,38.282,10.48z"/><path fill="#FFFFFF"  d="M29.967,25.215l2,0.059c0.018-0.608,0.061-1.223,0.128-1.826l-1.988-0.223C30.033,23.883,29.986,24.553,29.967,25.215z"/><path fill="#FFFFFF"  d="M33.226,13.819l1.727,1.008c0.308-0.526,0.641-1.044,0.988-1.538l-1.635-1.152C33.925,12.678,33.562,13.243,33.226,13.819z"/><path fill="#FFFFFF"  d="M31.506,17.419l1.871,0.707c0.216-0.571,0.458-1.137,0.719-1.68l-1.803-0.865C32.008,16.175,31.743,16.793,31.506,17.419z"/><path fill="#FFFFFF"  d="M51.15,4.095L50.898,2.11c-0.655,0.084-1.317,0.196-1.967,0.334l0.416,1.957C49.943,4.274,50.551,4.171,51.15,4.095z"/><path fill="#FFFFFF"  d="M44.183,6.202l-0.891-1.791c-0.592,0.295-1.181,0.618-1.748,0.962l1.035,1.711C43.101,6.769,43.64,6.472,44.183,6.202z"/><path fill="#FFFFFF"  d="M46.997,2.943c-0.637,0.192-1.271,0.414-1.884,0.657l0.738,1.859c0.562-0.224,1.142-0.426,1.726-0.603L46.997,2.943z"/><path fill="#FFFFFF"  d="M29.99,27.211c0.036,0.663,0.1,1.331,0.188,1.986l1.982-0.271c-0.083-0.601-0.141-1.213-0.173-1.82L29.99,27.211z"/><path fill="#FFFFFF"  d="M41.057,8.097l-1.176-1.619c-0.537,0.391-1.063,0.807-1.564,1.236l1.303,1.518C40.079,8.837,40.563,8.455,41.057,8.097z"/></svg>