<svg xmlns="http://www.w3.org/2000/svg" data-name="Layer 1" viewBox="0 0 100 100" x="0px" y="0px"><title>web</title><path fill="#FFFFFF" d="M51.75,48.24c-2.55,1.26-5.17,2.56-7.81,3.82a2.84,2.84,0,0,1-1.18.17H26.93c0.27,2.36.48,4.56,0.81,6.75A1.13,1.13,0,0,1,27,60.45c-1.17.5-2.3,1.11-3.7,1.79L22,52.3H7.75a33.34,33.34,0,0,0,1.66,9.64C10.45,65,11.75,68,12.94,71c-1.42-.75-2.58-1.43-3.4-1.92-6.3-3.81-7.44-6-7.79-6.69A9.52,9.52,0,0,1,1,59.86c-2.87-16,.74-30.35,11.37-42.69A48.25,48.25,0,0,1,43.89.4,49.5,49.5,0,0,1,73.34,5.76a17.57,17.57,0,0,1,5.38,5,18.56,18.56,0,0,1,4.41,9.06,25.58,25.58,0,0,1,0,3.59,0.7,0.7,0,0,1-.27,0c-1.37-1.4-1.36-1.36-3.23-.69-2.31.83-4.64,1.59-7,2.39,0.66,1.8,1.44,3.61,2,5.5,0.77,2.58,1.38,5.2,2,7.81a1.19,1.19,0,0,1-.16.92c-1.2,1.44-2.45,2.83-3.88,4.46a59.22,59.22,0,0,0-4.23-17.57l-16.64,1.6V48.24ZM31.23,25.88A61.9,61.9,0,0,0,27,47.9H47.37V27.68Zm-4.39-1.05c-2.43-.9-5-1.8-7.52-2.81a1,1,0,0,0-1.42.35c-6.66,7.86-7.63,13-7.63,13A61.51,61.51,0,0,0,7.87,45.62c-0.15.94-.25,1.73-0.32,2.28H21.9c0.57-4,.92-7.95,1.75-11.79S25.77,28.56,26.84,24.83Zm24.89-1.44,14.51-1.62c-0.25-.49-0.37-0.76-0.52-1A49.77,49.77,0,0,0,56.29,9.11c-1.38-1.29-2.89-1.31-4.56-1.37V23.39ZM47.39,7.74c-1,.11-2,0.16-2.91.33a2.79,2.79,0,0,0-1.32.58,45,45,0,0,0-9.46,12c-0.16.28-.28,0.58-0.53,1.08l14.23,1.7V7.74ZM78.22,18.85V18.49A40.3,40.3,0,0,0,62.8,9.78a62.67,62.67,0,0,1,7.44,10.58,0.82,0.82,0,0,0,.68.34C73.36,20.11,75.79,19.48,78.22,18.85ZM36.2,10a42.41,42.41,0,0,0-14.75,8.75c2.43,0.64,4.6,1.19,6.75,1.8A1,1,0,0,0,29.47,20q2.26-3.7,4.65-7.33C34.69,11.81,35.38,11,36.2,10Z"/><path fill="#FFFFFF" d="M72.77,48V46.26l4.82-.34,0.25,2H92.28c-0.18-1.63-.33-3.25-0.56-4.87-0.16-1.1-.82-2.3-0.53-3.23s1.5-1.54,2.27-2.33c1.22-1.25,2.42-2.53,3.62-3.79,6,15,3.89,40.57-17.27,56.36C59,105.6,32,101.6,16.71,87.18a38,38,0,0,0,5.07.67c2.45,0,4.89-.3,7.34-0.43a3.52,3.52,0,0,1,1.51.23c1.73,0.73,3.42,1.53,5.13,2.3l0.17-.21-2.36-3.41,4.2-1.59c1.64,2,3.28,3.93,4.82,5.92a3.61,3.61,0,0,0,2.94,1.43l1.86,0.08v-3l0.8,0.17,2.48-9.74c0.46-1.83,1-3.65,1.38-5.48a0.75,0.75,0,0,1,1-.73c4.44,0.53,8.89,1,13.33,1.6a1.09,1.09,0,0,0,1.44-.74,60.42,60.42,0,0,0,5-20.91c0-.33,0-0.66,0-1.11H57.66c0.34-1.37.61-2.61,1-3.82A1.2,1.2,0,0,1,59.59,48c4,0,8,0,12,0h1.14ZM72.08,76.28c2.58,0.93,5.06,1.79,7.5,2.74a1.18,1.18,0,0,0,1.54-.38A42.23,42.23,0,0,0,91.75,56.78c0.25-1.47.34-3,.5-4.45H77.79A63.06,63.06,0,0,1,72.08,76.28Zm-6.56,3L51.76,77.54V92.3c1.26-.13,2.44-0.19,3.59-0.4a2.82,2.82,0,0,0,1.53-.76,57.41,57.41,0,0,0,3.92-4.74C62.41,84.16,63.85,81.82,65.53,79.26Zm4.75,1-6.09,9.52a41.56,41.56,0,0,0,13-7.43Z"/><path fill="#FFFFFF" d="M26.69,70.73L20.45,67,55.09,50l-8.8,34.65c-2-1.28-3.84-2.45-5.65-3.7a1.53,1.53,0,0,0-1.82-.08,38.66,38.66,0,0,1-14,4.06c-9.33.85-19.22-6.39-21.06-15.51a0.92,0.92,0,0,1,0-.27c1.85,1.2,3.66,2.54,5.63,3.61a16.5,16.5,0,0,0,12.39,1.75A7.35,7.35,0,0,0,26.69,70.73Z"/><path fill="#FFFFFF" d="M77.82,42.75C83.7,36,86.57,28.38,86.1,19.58a12.47,12.47,0,0,0-4.5-9.28,0.57,0.57,0,0,1-.2-0.31c5.84,2.36,10.41,6.07,12.79,12.11A26.57,26.57,0,0,1,95.89,30a1.25,1.25,0,0,1-.23.82c-4.58,5.45-10,9.67-16.92,11.81a5.71,5.71,0,0,1-.59.14A3.1,3.1,0,0,1,77.82,42.75Z"/></svg>