<svg xmlns="http://www.w3.org/2000/svg" xmlns:xlink="http://www.w3.org/1999/xlink" version="1.1" x="0px" y="0px" viewBox="0 0 100 100" enable-background="new 0 0 100 100" xml:space="preserve"><g><path fill="#FFFFFF"  d="M87.9,71.7c-1-3.5-2.3-6.8-3.5-10.2c-2-5.8-4.1-11.6-6.1-17.3c-0.8-2.2-1.6-4.4-2.3-6.6c-0.3-0.8-0.5-1.8-0.9-2.6   c-1.3-2.6-3.1-5.2-4.9-7.5c-0.4-0.5-0.8-1.1-1.3-1.5c-0.7-0.6-1.5-1.1-2-1.9c-0.6-1.1-1.5-1.6-2.9-1.6c-0.7,0-0.9,0-1.5-0.4   c-0.4-0.3-0.7-0.5-1.1-0.7c-1-0.4-2-0.1-2.8,0.5c-1,0.8-2,1.7-3.1,2.5c-1,0.8-2,1.6-2.9,2.4c-0.7,0.6-1.4,1.4-1.3,2.4   c0.1,0.7,0.6,1.5,0.9,2.2c-1.3,0.4-1.4,2.8-0.7,3.7c0.4,0.6,1,0.7,1.6,1c0.6,0.3,1,0.8,1.6,1c1.3,0.6,2.6,1.2,3.9,1.6   c1.1,0.3,2.3,0.3,3.4,0.4c1,0.1,2.3,0,3.2,0.3c0.5,0.2,0.6,0.8,0.8,1.3c0.3,0.9,0.7,1.7,1,2.5c0.7,1.7,1.4,3.5,1.9,5.3   c0.5,1.6,0.5,3.2,0.6,4.9c0.3,4.4,0.3,9,0.9,13.4c-0.4-1.5-0.7-3-1.5-4.4c-0.8-1.4-1.8-2.7-2.7-4c-0.5-0.6-0.9-1.3-1.4-1.9   c-0.4-0.5-0.8-1.3-1.4-1.6c-1-0.5-2.4-0.6-3.5-0.7c-1.9-0.2-3.8-0.2-5.7,0c-0.6,0.1-1.2,0.2-1.8,0.3c-0.4,0.1-1,0.3-1.3,0.3   c-0.5-0.1-1.2-1.2-1.7-1.7c-0.6-0.5-1.3-0.9-2-1.3c-0.5-0.2-1.4-0.3-1.8-0.6c-0.5-0.3-0.2-2-0.2-2.7c0-0.3-0.1-0.8,0-1.1   c0.2-0.6,0.8-1.3,1.1-1.9c0.6-1.4,0.9-2.9,1.1-4.4c0.2-1.1,0-2.1,0.2-3.2c0.3-1.5,0.7-3.1,1.3-4.6c1-2.5,1.1-5.2-0.2-7.7   c-0.7-1.4-1.5-2.8-2.4-4.1c-0.4-0.5-0.8-1.1-1.3-1.5c-0.2-0.2-0.4-0.3-0.6-0.4c-0.4-0.2-0.5,0.1-0.5-0.4c0-0.2,0.2-0.4,0.2-0.6   c0.1-0.5,0.1-1,0-1.5c-0.1-0.7-0.5-1.4-0.9-1.9c-0.6-0.7-1.8-1.1-2.1-1.9c-0.2-0.5-0.3-1.1-0.6-1.5c-0.3-0.4-0.7-0.7-1.1-1   c-0.7-0.7-1.2-1.5-2.1-2.1c-1.3-0.8-2.9-1-4.4-0.7c0.6-0.7,1.2-1.4,1.9-1.9c0.4-0.3,2-0.6,1.6-1.3c-0.4-0.6-2.5-0.2-3-0.2   c-3.5,0.2-7.6,0.7-10.4,3c-1.1,0.9-1.6,1.9-2.1,3.2c-0.2,0.5-0.2,0.4-0.7,0.4c-0.4,0-0.8,0.1-1.2,0.2c-3.2,1-4.7,4.4-6.5,6.9   c-0.4,0.6-1,1.7-1.7,2.1c-0.2,0.1-0.4,0-0.6,0.1c-0.4,0.3-0.1,0.7,0.2,0.9c0.7,0.5,1.7,0.5,2.5,0.3C12.7,23.6,13,26,13,27.9   c0,2.3-0.3,5.3,0.8,7.4c0.3,0.7,0.8,1.2,1.3,1.8c0.4,0.4,1,0.8,1.3,1.2c0.4,0.6,0.6,1.6,1,2.3c0.4,0.7,0.8,1.3,1.3,1.9   c0.9,1,3.4,2.8,4.9,1.9c0.4-0.3,0.4-0.5,0.6-0.9c0.1-0.3-0.2-0.3,0.2-0.3c0.3,0,0.1-0.1,0.3,0.2c0.4,0.6,0.3,1.9,0.3,2.6   c0,0.4,0.2,1.8-0.1,2.1c-0.1,0.2-1.2,0.1-1.4,0.1c-0.4,0-0.9,0.1-1.3,0.1c-1.3,0.1-2.8,0.2-3.1,1.8c-0.1,0.6,0.1,1.2,0.3,1.8   c0.3,0.9,0.5,1.7,0.6,2.7c0,0.7,0,1.5-0.1,2.2c-0.1,0.7-0.6,0.8-1.1,1.2c-1.3,1-1,1.9-0.9,3.3c0.1,1.9-0.8,3.4-1.4,5.2   c-1.1,3.9-1.2,8-0.4,11.9c0.8,4.1,2.6,7.8,4.5,11.5c1.1,2.1,2,3.8,1.9,4.9c0,0.3,0.2,0.5,0.4,0.5c0,0,0,0,0,0   c0.2,0,0.5-0.2,0.5-0.4c0.1-1.4-0.8-3.1-2-5.4c-3.5-6.6-6-13.6-4.4-21.2c0.3-1.6,0.9-3.1,1.5-4.6c0.5-1.2,0.2-2.5,0.1-3.8   c-0.1-1.1,1.3-1.7,2.2-2.1c1.5-0.7,3.3-0.9,4.9-1.1c2.2-0.2,4.5-0.3,6.7-0.3c-3.3,0.9-6.6,2.4-8.8,4.9c-0.5,0.5-0.9,1.1-1.3,1.7   c-0.2,0.3-0.9,1.7,0,1.2c0.4-0.2,0.8-1.3,1-1.7c0.4-0.6,0.9-1.1,1.4-1.6c1.9-1.7,4.3-2.9,6.7-3.7c2.1-0.7,4-0.9,6.3-0.9   c0.7,0,2.7,0.5,3-0.3c0.3-0.7,0.4-1.7,0.7-2.4c0.3-0.7,0.6-1.4,1-2.1c0.5,0.8,0.5,1.8,0.6,2.7c0.2,1,0.4,2,0.7,3   c0.1,0.4,1.3,3,1.7,1.4c0.1-0.3,0-0.9,0-1.2c0-0.7,0-1.5,0-2.2c0-1.1,0-2.2,0-3.2c1.8,0.5,3.4,1.5,4.5,3c-1,0.2-1.9,0.6-2.3,1.6   c-0.3,0.7-0.1,1.3,0.1,2c0.2,0.9,0.5,1.9,0.6,2.9c-1.3-0.4-2.6-0.4-3.8,0c-1.6,0.5-2.9,1.6-4.6,2.1c-1.4,0.4-2.8,0.3-3.7-0.8   c-0.4-0.5-0.6-1-0.8-1.6c-0.2-0.4-0.6-0.9-0.6-0.1c-0.1,1.1,1.2,2.6,2.1,3c1.4,0.7,3.1,0.4,4.4-0.2c1.5-0.7,2.9-1.6,4.6-1.8   c0.9-0.1,2.2,0,2.9,0.6c1.8,1.6-0.8,3.6-2,4.5c-1.9,1.4-4,3.6-2.7,6c1.2,2.2,2.5,4.4,3.7,6.7c0.3,0.7,0.6,1.6,1.1,2.2   c0.5,0.7,0.6,0,0.4-0.6c-0.7-1.6-1.5-3.2-2.3-4.7c-0.6-1.2-1.3-2.4-2-3.7c-0.5-0.8-0.7-1.5-0.2-2.4c1.2-2.6,4.8-3.2,5.6-6.2   c1.3,1.5,2.8,2.8,4.3,4.1c0.6,0.5,1.3,1.1,2.2,1c1.1-0.1,1.6-1,1.6-2c1.1,0.4,2.4,0.3,3-0.9c0.2,0.1,0.3,0.3,0.5,0.4   c-3.7,1.8-6.7,5.2-5.1,9.5c0.8,2.3,2.5,4.2,4.2,5.8c0.5,0.5,1.1,1.2,1.9,1.5c0.4,0.1,0.9,0.2,1.4,0.2c4.2,0.7,8.4,1.3,12.7,1.5   c2.7,0.2,5.4,0.3,8.1-0.1c1.2-0.2,2.5-0.6,3.5-1.4c1.9-1.3,1.5-3.5,1.2-5.5C89.2,76.3,88.5,74,87.9,71.7   C87.7,71.2,88.5,74.1,87.9,71.7z M48.2,26.4c0.5,1.5,0.8,3.2,0.5,4.8c-0.2,1.1-0.7,2-1.1,3c0-1.7,0.2-3.5-0.2-5.2   c-0.1-0.7-0.4-1.3-0.7-1.9c-0.2-0.3-0.4-0.5-0.6-0.7c-0.4-0.8-0.5-2-0.7-2.8c-0.2-0.9-0.3-1.8-0.7-2.6   C46.3,22.5,47.3,24.5,48.2,26.4 M41.3,14.8c0-0.1,0-0.1,0-0.2c1.3,0.8,2.4,2.1,2.1,3.7c-0.5-0.7-0.9-1.5-1.4-2.2   C41.8,15.8,41.2,15.2,41.3,14.8z M39.9,12.3c1.3,1.9,0,4.4-2.1,4.9c2-1.2,2.9-3.2,1.7-5.3C39.7,12,39.8,12.1,39.9,12.3 M38.7,11.3   c0.8,1,1.3,2.4,0.7,3.7c-0.5,1-1.9,2.3-3.1,2.2c1.8-1.5,3.6-4,1.6-6.2C38.2,11.1,38.5,11.2,38.7,11.3 M28.7,15.3   c0.7-0.2,1.1-0.6,0.7-1.3c0.5,0,1.4-0.2,1.8,0.1c0.5,0.4,0.3,0.7-0.1,0.9c-0.4,0.2-0.9,0.3-1.3,0.6c-0.3,0.4-0.1,0.4-0.7,0.6   c-0.4,0.1-0.9,0.1-1.3,0.2C27.8,15.8,28.2,15.4,28.7,15.3C29.3,15.1,28.4,15.3,28.7,15.3z M27.4,16.4c-0.8,0.2-1.6,0.4-2.3,0.8   c1-1.4,1.5-2.7,3.3-3.1c0.3-0.1,0.7-0.2,0.7,0.3c0,0.3,0,0.2-0.2,0.3c-0.3,0.2-0.7,0.2-1,0.5C27.6,15.5,27.4,15.9,27.4,16.4    M31.4,15.3c0.9-0.1,0.2-1.1,0-1.5c-0.3-0.5-0.3-1.1,0-1.6c0.3-0.5,0.9-1,1.5-1.2c0.3-0.1,0.8-0.1,1.2,0c0.2,0.1,0.6,0.5,0.3,0.8   c-0.2,0.2-1,0-1.2,0.1c-0.6,0.2-1.1,0.8-1.1,1.4c0,0.8,0.9,1.4,0.4,2.2c-0.6,0.8-1.7,0.6-2.5,0.6C30.1,15.6,30.9,15.3,31.4,15.3z    M32.9,15.5c0.3-0.8-0.3-1.2-0.4-1.9c-0.1-0.6,0.3-1.1,0.8-1.3c0.4-0.1,1.1,0.2,1.4-0.1c0.5-0.4,0.2-1.3-0.4-1.5   c0.6-0.1,1.7,0.4,1.9,1c0.3,1.1-1.1,1-1.7,1.2c-1.1,0.4-0.8,1-0.5,1.8c0.2,0.5,0.1,1-0.3,1.4c-0.5,0.5-1,0.3-1.6,0.2   C32.4,16.1,32.7,15.8,32.9,15.5C33.1,14.9,32.7,15.8,32.9,15.5z M34.4,15.6c0.2-0.7-0.4-1.1-0.4-1.7c0-0.7,1-0.6,1.4-0.8   c1.3-0.4,1.4-1.9,0.1-2.5c0.8,0.1,1.8,0.7,1.9,1.6c0.2,1.2-0.7,1.2-1.5,1.4c-1.2,0.2-0.5,1-0.4,1.7c0.1,0.5-0.2,1.1-0.7,1.4   c-0.5,0.2-0.7,0-1.2-0.1C34.1,16.3,34.3,16,34.4,15.6 M35.9,15.9c0.1-0.4,0-0.7-0.1-1c0-0.1-0.3-0.4-0.3-0.5   c0.1-0.6,0.9-0.3,1.3-0.5c1.4-0.5,1-2.3,0.1-3c1,0.2,1.5,1.8,1.4,2.7c-0.1,0.7-0.5,1.4-0.9,1.9c-0.3,0.3-0.6,0.6-0.9,0.9   c-0.6,0.5-0.8,0.8-1.5,0.6C35.5,16.8,35.8,16.4,35.9,15.9 M22.8,9.5c0.3-1.1,1.6-0.9,1.3,0.3C23.9,11,22.5,10.7,22.8,9.5   C22.8,9.4,22.7,10.1,22.8,9.5z M17.1,13.8c0.4-0.4,0.6-0.7,1-0.1c0.3,0.4,0.3,1.3,0,1.7C17.3,16.6,16.8,14.5,17.1,13.8   C17.3,13.6,17,14,17.1,13.8z M11.9,20.8c1.9-1.9,2.9-4.5,4.7-6.5c-0.1,0.8,0.6,2.4,1.6,1.6c0.8-0.6,0.7-2.4-0.2-2.9   c0.9-0.7,1.8-0.9,3-0.8c0.3,0,0.5,0.2,0.8-0.1c0.2-0.2,0.1-0.6,0.2-0.9c0.1-0.4,0.2-0.8,0.4-1.2c0.1,1,1.2,1.3,1.9,0.5   c0.5-0.6,0.4-1.9-0.5-2.1c2.8-2.3,6.9-2.7,10.3-2.9c-1.9,1.5-2.9,3.8-4.8,5.2c-0.1-0.5-0.9-0.7-1.3-0.5c-0.6,0.2-0.7,0.8-0.8,1.3   c-0.1,0.5,0,0.3-0.4,0.5c-0.3,0.2-0.7,0.2-1,0.2c-0.6,0.1-1.1,0.1-1.7,0.1c-0.3,0-0.6-0.1-0.8,0.1c-0.3,0.2-0.4,1.4-0.5,1.8   c-0.3,1.1-0.8,2.1-1.5,3c0.1-1-0.9-1.8-1.7-1c-0.6,0.6-0.7,2,0.3,2.3c-0.3,0.2-0.9,0.6-1.3,0.7c-0.3,0.1-0.5-0.2-0.9,0   c-0.4,0.3-0.5,0.4-1,0.5c-0.4,0.1-0.7,0.1-1.1,0.1c-0.6,0-0.9,0-1.4,0.3C13.4,20.7,12.7,21,11.9,20.8 M28.9,11   c-0.5,0.3-1,0.6-1.5,0.8c0-0.4,0.2-1.1,0.7-1.2C28.4,10.5,28.9,10.6,28.9,11 M20.8,17.4c-0.3,1.2-1.7,0.8-1.3-0.4   C19.8,15.9,21,16.3,20.8,17.4C20.7,17.7,20.9,16.9,20.8,17.4z M18.8,20.5c0,0.6-0.5,1.3-1.1,0.8c-0.1-0.1-0.4-0.5-0.3-0.7   c0-0.1,1.2-0.4,1.3-0.4C18.7,20.3,18.7,20.4,18.8,20.5z M14,30c0.5-1.1,1.5,0.2,1.2,1c-0.1,0.3-0.4,0.6-0.8,0.5   C13.8,31.3,14,30.5,14,30 M15.7,36.4c-0.3-0.4-1.5-1.8-0.3-1.9C16.3,34.5,16.3,36,15.7,36.4 M21.2,43.3c-1-0.5-1.9-1.3-2.5-2.2   c-0.5-0.8-0.9-1.6-1.2-2.5c-0.3-1-0.9-1.3-1.6-2c1.5-1.1-0.4-3.6-1.4-1.9c-0.4-0.9-0.5-1.9-0.5-2.9c2.1,1.4,1.9-3.9-0.1-2.3   c0-1.7,0-3.4,0-5.1c0.7,1,1.8,0.2,1.9-0.7c0.1-0.9-1-2.1-1.8-1.1c0.1-0.5,0.2-1.3,0.7-1.6c0.2-0.1,0.6-0.1,0.8-0.1   c0.4,0,1-0.2,1.3-0.1c0.4,0.1,0.4,0.9,1,1.1c0.5,0.1,1-0.2,1.2-0.7c0.1-0.3,0-0.6,0.1-0.9c0.1-0.3,0-0.2,0.3-0.4   c0.4-0.3,0.9-0.5,1.3-0.9c0.9-0.7,1.6-1.7,2.1-2.7c0.3-0.6,0.5-1.2,0.7-1.9c0-0.2,0.1-0.9,0.2-1c0.1,0,0.3,0,0.4,0   c0.7-0.1,1.5-0.1,2.2-0.3c1-0.3,2-0.7,2.9-1.3c0.5-0.3,0.9-0.7,1.3-1c0.5-0.5,0.9-1.2,1.4-1.6C32.3,9,32.2,9.1,32.6,9   c0.1,0,0.1-0.1,0.2-0.1c0.4-0.1,0.8-0.2,1.2-0.2c1.4-0.1,2.8,0.3,3.8,1.3c-1.2-0.2-2.3-0.5-3.6-0.4c-0.9,0.1-1.7,0.4-2.4,0.9   c-0.4,0.3-0.7,0.6-1,1c-0.1,0.1-0.2,0.3-0.3,0.4c-0.1,0.2-0.1,0.7-0.2,0.8c-0.3,0.3-1.7,0.3-2.3,0.4c-1,0.3-1.9,0.8-2.5,1.6   c-0.4,0.5-0.7,1.1-1.1,1.7c-0.6,0.8-1.3,1.5-1.8,2.5c-1-1-2,0.5-1.7,1.5c0.1,0.3,0.3,0.4,0.4,0.7c0.1,0.1,0.2,0.1,0.3,0.2   c-0.1,0.2-0.1,0.3-0.2,0.5c-0.2,0.7-0.5,1.4-0.7,2.2c0.2-1.3-1.5-2.2-2-0.7c-0.4,1.2,1.1,2.7,1.9,1.2c-0.4,1.3-0.8,2.5-1.1,3.8   c-0.7-0.9-1.7,0-1.8,0.8c-0.1,0.8,0.6,1.9,1.5,1.4c0,0.6,0,1.2,0,1.8c0.1,0.6,0.3,1.2,0.3,1.7c0,0.4-0.1,0.8,0,1.2   c0.1,1,0.1,2,0.2,3c-0.8-0.7-1.7,0.2-1.7,1.1c0,0.9,1,1.9,1.8,1c0,0.8,0.7,0.9,1.3,1.3C20.9,42,20.9,42.8,21.2,43.3 M14.1,23.5   c0-1.2,1.4-1.2,1.4,0C15.5,24.6,14.1,24.7,14.1,23.5z M21.3,33.4c0.3,0.3,0.3,0.9,0.2,1.2c-0.2-0.1-0.5-0.3-0.7-0.4   c-0.4-0.3-0.2-0.1-0.3-0.6c-0.2-1.3-0.3-2.4-0.2-3.7c0.2-1.5,0.6-2.9,1-4.4c0.1,0.8,0.5,1.5,0.6,2.3c0.1,0.8,0,1.6-0.2,2.4   c-0.1,0.6-0.3,1.3-0.5,1.9C21.3,32.5,21,33.1,21.3,33.4C21.5,33.6,21.1,33.2,21.3,33.4z M21.8,20.9c-0.7-0.2-0.8-1.6-0.1-1.9   C23,18.6,22,20.5,21.8,20.9 M20.5,23.7c0,1.2-1.4,1.2-1.4,0C19.1,22.6,20.5,22.5,20.5,23.7z M19.9,39.4c-0.1,1.5-1.8,0.8-1.3-0.5   C19,37.9,19.9,38.5,19.9,39.4z M19.6,28.8c-0.1,0.4,0,1.1-0.4,1.3c-0.4,0.3-0.8-0.2-0.9-0.6C18.1,28.7,19.2,27.7,19.6,28.8    M22,43.4c-0.8,0-0.8-1.2-0.5-1.7c0.2,0.1,1.1,0.6,1.1,0.9C22.8,42.9,22.3,43.4,22,43.4z M23.1,43.2c0.1,0.5-0.3,0.5-0.6,0.5   c0.3-0.2,0.5-0.5,0.6-0.8C23.2,42.9,23.2,43,23.1,43.2z M39.8,55.7c-2.9-0.1-5.8-0.2-8.7-0.1c-3.4,0.1-7.1,0.1-10.3,1.3   c0.2-1.6,0.1-3.3-0.4-4.9c-0.5-1.4-0.6-2.5,1.2-2.7c2.4-0.2,4.8-0.4,7.2-0.4c3.5,0,7.2,0.1,10.6,1c0.5,0.1,1.1,0.3,1.6,0.5   c0.2,0.1,0.8,0.3,0.8,0.6c0,0.1-0.2,0.4-0.3,0.5C40.7,52.8,40.1,54.2,39.8,55.7 M25.7,44.7c1.5,1.7,4,2.6,6,3.3c-2-0.1-4,0-6,0.1   C25.8,47,25.8,45.8,25.7,44.7 M44.5,56.5c-0.2-0.8-0.4-1.7-0.5-2.5c-0.1-0.8-0.1-1.7-0.5-2.4c-0.5-1.1-1.6-1.9-2.7-2.2   c1.3,0,2.7-0.5,3.7-1.2C44.5,51,44.5,53.7,44.5,56.5z M45.1,46.1c-1,1.5-2.8,2.3-4.6,2.3c-2.5-0.1-5-0.3-7.4-1   c-2.2-0.6-4.6-1.4-6.3-2.9c-0.5-0.5-0.9-1.1-1.2-1.7c-0.1-0.3-0.2-0.8-0.5-0.9c-0.4-0.1-0.4,0.2-0.7,0.3c-0.5,0.2-0.9-0.1-1.3-0.4   c-0.6-0.5-1.3-0.8-2-1.3c-0.4-0.3-0.3-0.3-0.3-0.9c0-0.6-0.1-1.2-0.1-1.8c0-0.9-0.1-1.8-0.1-2.6c0.6,0.4,1.4,1.2,1.8,0.1   c0.1-0.5,0.1-1.1,0-1.6c-0.1-0.2-0.3-0.5-0.3-0.7c0-0.2,0.2-0.5,0.2-0.7c0.4-1.2,0.6-2.5,0.6-3.8c0-1.2-0.6-2.2-0.7-3.4   c-0.1-2.1,0.3-4.9,2-6.3c2-1.7,5-1.9,7.5-1.5c1.4,0.2,2.8,0.8,4.2,1c1.9,0.2,3.7-0.5,4.8-2.2c0.9,1.3,1.7,2.6,2.5,3.9   c-1.4-0.4-2.1,0.7-2.9,1.6c-0.5,0.6-1,1.1-1.5,1.7c-0.2,0.2-0.6,0.5-0.7,0.8c-0.2,0.6,0.3,1,0.8,0.6c0.1-0.1,0.1-0.2,0.2-0.3   c0.4-0.5,0.8-1.1,1.2-1.6c0.6-0.8,1.5-2.7,2.8-2.2c1.1,0.4,1.1,2,1.3,2.9c0.2,1,0.3,2.3,0.8,3.3c0.1,0.3,0.4,0.5,0.6,0.8   c0.4,0.7,0.6,1.5,0.7,2.3c0.2,1.4,0,2.9,0,4.3C46.8,38,47.2,42.7,45.1,46.1 M61.4,65.7c-0.1-0.3-0.5-0.6-0.7-0.8   c-0.5-0.5-1-1.1-1.5-1.6c-0.6-0.6-1.1-1.2-1.7-1.8c-0.3-0.4-0.8-0.7-1.1-1.2c-0.5-0.8,0-2.1-0.4-3c-0.3-0.7-0.4,0.2-0.3,0.5   c0.1,0.7,0,1.5,0.2,2.3c0.2,0.8,1,1.5,1.5,2.1c0.9,1.1,2,2.2,2.7,3.5c0.3,0.5,0.2,0.9-0.4,1.2c-0.6,0.3-1.6-0.1-2-0.5   c-0.9-0.8-1.8-1.9-2.6-2.8c-0.8-0.9-2.2-1.9-2.6-3.1c-0.2-0.7-0.4-1.5-0.5-2.2c0-0.2-0.3-1.5-0.6-0.9c-0.2,0.3,0.2,1.3,0.3,1.6   c0.1,0.6,0.2,1.3,0.4,1.9c0.4,1.1,1.7,2.2,2.5,3.2c0.4,0.4,0.8,0.9,1.2,1.3c0.4,0.4,1,0.9,1.3,1.5c0.2,0.4,0.2,1.3-0.2,1.7   c-0.9,0.8-2.1-0.8-2.7-1.3c-1.7-1.4-3.3-3-4.6-4.8c-0.5-0.6-0.4-1.2-0.5-2c-0.2-0.9-0.5-1.8-0.6-2.7c-0.3-1.6,1.8-1.8,2.9-2.1   c2.6-0.6,5.3-0.8,7.9-0.6c0.9,0.1,1.8,0.2,2.7,0.4c0.9,0.2,1.2,0.4,1.8,1.1c1.6,2,3.2,4.1,4.5,6.4c0.5,0.8,0.7,1.6,0.9,2.6   c-0.8-1.5-2-2.9-3.3-4c-0.6-0.6-1.3-1-2.1-1.3c-0.6-0.2-0.5-0.4-0.6-1c-0.1-0.5-0.2-1.1-0.3-1.6c-0.1-0.3-0.2-0.8-0.5-0.3   c-0.1,0.2,0.1,1,0.1,1.2c0,0.4,0.1,0.8,0.1,1.2c-0.6-0.1-1.4-0.1-1.9-0.3c-0.3-0.1-0.3,0-0.3-0.5c-0.1-0.3-0.1-2-0.4-2.2   c-0.5-0.2-0.2,1.8-0.2,2c0,0.6,0,1,0.3,1.5c0.9,1.3,1.9,2.5,2.9,3.8c0.3,0.4,0.8,0.9,0.9,1.4C63.9,67.1,62,66.4,61.4,65.7   C61.4,65.7,61.7,66,61.4,65.7z M64.4,64.8c-0.3-0.7-1.1-1.5-1.6-2.1c-0.5-0.7-1.1-1.4-1.6-2.1c3.6,0.5,6.5,3.5,7.7,6.9   c-1.3-0.6-2.9-1.8-4.3-1.4C64.7,65.6,64.6,65.2,64.4,64.8C64.4,64.7,64.6,65.3,64.4,64.8z M88.8,82.1c-0.2,1.8-3.3,2.5-4.8,2.7   c-2.3,0.2-4.6,0.2-6.9,0.1c-4.3-0.2-8.6-0.8-12.9-1.5c-0.4-0.1-1-0.1-1.4-0.2c-0.5-0.2-0.9-0.7-1.3-1.1c-0.6-0.6-1.2-1.2-1.8-1.9   c-1.4-1.7-2.9-3.9-2.7-6.2c0.1-2.2,1.7-3.8,3.4-4.9c1.3-0.8,3-1.8,4.6-2c0.9-0.1,2.2,0.8,3.1,1.2c0.8,0.4,1.6,0.7,2.4,1.1   c0.3,0.1,0.8,0.5,1.2,0.5c1,0,0.2-1.1,0-1.6c-0.3-0.9-0.4-1.9-0.5-2.8c-0.3-2.5-0.4-5.1-0.5-7.6c-0.1-2.7-0.1-5.6-0.6-8.3   c-0.5-2.6-1.7-5.1-2.6-7.5c-0.4-0.9-0.7-2.5-1.5-3.1c-0.5-0.4-1.2-0.3-1.7-0.4c-1.8-0.2-3.7-0.2-5.4-0.6c-1.1-0.3-2.1-0.8-3.1-1.2   c-1-0.5-1.8-1.2-2.8-1.6c-0.5-0.2-0.9-0.5-1-1.1c-0.1-0.4,0.1-1.4,0.4-1.6c0.3-0.2,1.1,0,1.4,0c0.8,0,1.6-0.1,2.3-0.6   c1.3-0.9,1.2-2.1,1.4-3.4c0.1-0.4,0.6-1.8,0.4-2.2c-0.5-1-0.7,1.2-0.7,1.5c0,0.5-0.1,0.9-0.2,1.4c-0.1,0.4,0,0.6-0.3,0.8   c-0.4,0.3-1.3,0.3-1.8,0.2c-0.3-0.1-0.6-0.2-0.9-0.3c-0.2-0.1-0.5-0.4-0.7-0.5c-0.6-0.1-0.3,0.3,0,0.5c0.9,0.9,2.2,1.2,3.4,0.9   c-0.6,1-2.8,1.7-3.6,0.7c-0.4-0.6-1.1-2-0.8-2.7c0.2-0.5,0.8-0.9,1.2-1.3c0.8-0.6,1.5-1.2,2.3-1.8c0.8-0.7,1.7-1.3,2.5-2   c0.5-0.4,1.1-1.1,1.7-1.2c1-0.2,2.2,0.7,2.9,1.3c0.7,0.6,1.3,1.5,2,2.2c0.1,0.2,0.5,0.7,0.7,0.8c0.6,0.2,0.2-0.4,0-0.6   c-0.6-0.8-1.3-1.6-1.9-2.4c0.7-0.1,1.6,0.1,2.1,0.6c0.3,0.4,0.5,0.9,0.9,1.3c1,1,2,1.8,2.9,2.9c1.6,2.1,3,4.5,4.4,6.8   c0.3,0.6,0.5,1.2,0.7,1.8c0.5,1.5,1.1,3.1,1.6,4.6c3.1,8.9,6.2,17.7,9.4,26.6c0.3,0.8,0.6,1.7,0.9,2.5c0.6,1.7,1,3.6,1.4,5.3   C88.4,77.8,88.9,80,88.8,82.1C88.6,83.5,89,79.2,88.8,82.1z"/><path fill="#FFFFFF"  d="M19.2,33.1c0-1.7-2.1-1.7-2.1,0C17.1,34.8,19.2,34.8,19.2,33.1z M18.1,34.1c-0.9,0-0.9-1.9,0-1.9   C19.1,32.2,19.1,34.1,18.1,34.1z"/><path fill="#FFFFFF"  d="M17.9,25.7c0-1.7-2.1-1.7-2.1,0C15.7,27.4,17.9,27.4,17.9,25.7z M16.8,26.7c-0.9,0-0.9-1.9,0-1.9   C17.7,24.8,17.7,26.7,16.8,26.7z"/><path fill="#FFFFFF"  d="M20.8,15.8c1.3,0.3,2-2.1,0.7-2.6C20.1,12.7,19.4,15.5,20.8,15.8C20.9,15.8,20.6,15.8,20.8,15.8z M20.5,14.4   c0.2-1.1,1.5-1,1.4,0.2C21.7,15.8,20.2,15.6,20.5,14.4C20.5,14.1,20.4,14.6,20.5,14.4z"/><path fill="#FFFFFF"  d="M25.8,11.4c1.3,0.3,2-2.1,0.7-2.6C25.1,8.3,24.4,11.1,25.8,11.4C25.9,11.5,25.5,11.4,25.8,11.4z M25.4,10   c0.2-1,1.5-1,1.4,0.2C26.7,11.4,25.1,11.2,25.4,10C25.5,9.7,25.4,10.2,25.4,10z"/><path fill="#FFFFFF"  d="M28.8,9.6c1.3,0.3,2-2.1,0.7-2.6C28.1,6.5,27.3,9.3,28.8,9.6C28.8,9.6,28.5,9.5,28.8,9.6z M28.4,8.1c0.2-1,1.5-1,1.4,0.2   C29.6,9.5,28.1,9.4,28.4,8.1C28.5,7.9,28.3,8.4,28.4,8.1z"/><path fill="#FFFFFF"  d="M15.2,19.6c1.6,0.7,2.7-2.2,1.1-2.8C14.8,16.4,13.8,19,15.2,19.6C15.4,19.7,14.6,19.4,15.2,19.6z M15,17.9   c0.5-1.1,2-0.7,1.6,0.6C16.2,19.9,14.4,19.3,15,17.9C15.2,17.5,14.8,18.5,15,17.9z"/><path fill="#FFFFFF"  d="M45.2,66.2c0.7-0.1,2.1-0.5,2.4-1.4c0.2-0.6-0.6-0.9-0.8-0.3c-0.7,1.1-2.8,1.1-4,1.1c-1.7,0-3.4-0.1-5.1,0.5   c-3.8,1.5-4.3,5.6-3.1,9.1c0.6,1.6,1.4,3.2,2.8,4.4c0.2,0.2,1.2,1.1,1.6,1c0.7-0.3-0.6-0.9-0.7-1c-2.7-2-4.3-6.4-3.2-9.6   c0.6-1.9,2.3-3,4.1-3.4C41.1,66.1,43.2,66.6,45.2,66.2C45.8,66.1,44.7,66.3,45.2,66.2z"/><path fill="#FFFFFF"  d="M27.3,27.1c1.1-0.2,2.3-0.1,3.4,0c0.6,0,1.5,0.3,2.1,0.1c0.4-0.1,0.7-0.6,0.3-0.9c-0.1-0.1-0.4-0.1-0.5-0.1   c-1-0.1-2.1-0.1-3.1,0c-1,0-2.2-0.1-3.1,0.6c-0.7,0.6-1.3,1.4-1.8,2.2c-0.1,0.2-0.5,0.7-0.1,0.8c0.3,0.1,0.4-0.4,0.5-0.5   C25.6,28.5,26.4,27.2,27.3,27.1C27.5,27,27.1,27.1,27.3,27.1z"/><path fill="#FFFFFF"  d="M40.4,32.1c0.7,0.6,0.8,1.3,0.5,2.2c-0.1,0.3-0.3,0.6-0.6,0.8c-0.1,0.1-0.4,0.2-0.5,0.3c-0.3,0.4,0.1,0.4,0.4,0.2   c0.8-0.4,1.2-1.3,1.3-2.1c0.1,0.2,0.2,0.4,0.2,0.7c0,0.1-0.3,0.4-0.3,0.5c0.2,0.5,0.6-0.2,0.6-0.4c0.1-0.5-0.2-0.8-0.4-1.2   c-0.2-0.4-0.4-0.8-0.7-1.1c-1-1.1-2.4-2.2-2.7-3.8c-0.1-0.4,0.4-2,0.1-2c-0.5,0-0.6,1.6-0.5,1.9C37.9,29.6,39.2,31.2,40.4,32.1"/><path fill="#FFFFFF"  d="M37.9,35.1c-0.1,0.1-0.6,0.7-0.2,0.8c0.2,0,0.4-0.5,0.6-0.5c0.1-0.1,1.3,0.1,1-0.3C39.1,34.7,38.2,34.9,37.9,35.1"/><path fill="#FFFFFF"  d="M43.9,38.7c-0.6-0.1-1.2-0.1-1.7,0.2c-0.4,0.2-0.6,0.6-1.1,0.7c-0.5,0.1-1.1,0-1.6,0.1c-0.8,0.2-1.3,0.7-2,1.2   c-0.3,0.2-1.2,0.2-1.3,0.4c-0.2,0.4,0.9,0.3,1,0.2c0.6-0.2,1.1-0.8,1.6-1.1c0.7-0.3,1.2-0.3,1.9-0.4c0.6,0,0.8-0.3,1.2-0.6   c0.3-0.2,1.1-0.6,1.4-0.4c0.7,0.5-0.6,1.8-1.1,2c-0.9,0.5-1.9,0.9-3,0.9c-0.3,0-1.8-0.4-1.8-0.2c-0.1,0.5,1.7,0.6,2,0.6   c1.2,0,2.5-0.5,3.5-1.2C43.4,40.9,44.7,38.9,43.9,38.7"/><path fill="#FFFFFF"  d="M37.4,40.6c0.4,0,1.1-0.8,1.4-1c0.5-0.4,0.8-0.8,1.5-0.8c0.4,0,0.8,0.1,1.2-0.2c0.4-0.2,0.3-0.5,0.7-0.6   c0.5-0.1,0.9,0.2,1.4,0.3c0.2,0,0.2,0.3,0.4,0c0.1-0.1-0.2-0.3-0.2-0.4c-0.4-0.4-1.6-0.4-2.1-0.2c-0.2,0.1-0.3,0.5-0.5,0.6   c-0.4,0.2-1-0.2-1.4,0c-0.5,0.2-1,0.8-1.4,1.1C38.2,39.5,36.7,40.6,37.4,40.6z"/><path fill="#FFFFFF"  d="M44.4,25.8c-1.3-1.4-3.3-0.4-4.4,0.8c-0.1,0.1-1.1,1.2-0.8,1.3c0.1,0.1,1.1-1.2,1.2-1.4c-0.2,0.5,0,1,0.4,1.4   c-0.2,0-1.1,0-0.5,0.4c0.4,0.2,1.5-0.1,1.9-0.2C43,27.9,45.4,26.8,44.4,25.8C44.3,25.6,44.5,25.9,44.4,25.8z M44.1,26.6   c-0.4,0.6-1.1,0.9-1.7,1c0.5-0.6,0.2-1.9-0.7-2c0.6-0.2,1.1-0.1,1.6,0.2C43.4,26,44.2,26.5,44.1,26.6C44,26.7,44.1,26.6,44.1,26.6z   "/><path fill="#FFFFFF"  d="M33.8,29.9c-0.6,0.4-1.2,0.8-1.9,1.1c0.4-0.6,0.1-1.4-0.5-1.7c0.2,0,2.5,0.4,2.5,0.3c0.1-0.2-1.3-0.6-1.4-0.6   c-0.8-0.2-1.7-0.4-2.6-0.2c-0.9,0.1-3.5,1.6-2.6,2.8c0.6,0.7,2.3,0.5,3.1,0.4c0.8-0.1,1.5-0.4,2.2-0.8c0.4-0.2,0.9-0.4,1.2-0.8   C33.9,30.2,34.1,29.6,33.8,29.9C33.1,30.4,33.8,29.8,33.8,29.9z M27.9,31.4c0.6-0.7,0.9-1.4,1.9-1.8c-0.5,0.6-0.3,1.6,0.5,1.9   C29.5,31.6,28.6,31.6,27.9,31.4C27.9,31.4,28.3,31.5,27.9,31.4z"/><path fill="#FFFFFF"  d="M28.3,29.1c0.6-0.4,1.3-0.6,2-0.7c0.8-0.1,1.7,0.2,2.5,0.1c0.2,0,0.6,0,0.3-0.3c-0.2-0.2-1.1-0.2-1.4-0.2   c-0.8-0.1-1.6,0-2.4,0.2c-0.7,0.2-1.3,0.6-1.8,1.1c-0.2,0.3-0.8,1-0.8,1.4c0.1,0.4,0.2,0.2,0.4,0c0.1-0.2,0.2-0.5,0.3-0.7   C27.6,29.7,27.9,29.4,28.3,29.1C29.3,28.4,27.2,29.8,28.3,29.1z"/><path fill="#FFFFFF"  d="M38.9,27.1c0.2,0,0.5-0.5,0.6-0.7c0.4-0.5,0.9-0.9,1.4-1.2c0.6-0.4,1.3-0.5,2-0.3c0.3,0.1,1.5,1.1,1.3,0.3   c-0.2-0.6-1.7-0.8-2.2-0.8c-0.7,0.1-1.3,0.4-1.9,0.8C40.1,25.3,38.3,27.1,38.9,27.1z"/></g></svg>