<svg xmlns="http://www.w3.org/2000/svg" xmlns:xlink="http://www.w3.org/1999/xlink" version="1.1" x="0px" y="0px" viewBox="0 0 20.333 28" style="enable-background:new 0 0 20.333 27;" xml:space="preserve"><g><path fill="#FFFFFF"  d="M11.333,13.436V8c0-0.734-0.4-1.37-0.991-1.718C9.517,7.32,8.259,8,6.833,8C5.407,8,4.149,7.32,3.324,6.282   C2.733,6.63,2.333,7.266,2.333,8v7c0,0.572,0.243,1.084,0.627,1.449L0,22h6.483c-0.098-0.484-0.15-0.986-0.15-1.5   C6.333,17.235,8.422,14.466,11.333,13.436z"/><path fill="#FFFFFF"  d="M6.769,23H4.333v3c0,0.553,0.447,1,1,1h3c0.402,0,0.744-0.24,0.903-0.583C8.115,25.545,7.252,24.364,6.769,23z"/><circle fill="#FFFFFF" cx="6.833" cy="3.5" r="3.5"/><path fill="#FFFFFF"  d="M13.833,14c-3.59,0-6.5,2.91-6.5,6.5s2.91,6.5,6.5,6.5c3.59,0,6.5-2.91,6.5-6.5S17.423,14,13.833,14z M18.333,21h-9v-1h9   V21z"/></g><text x="0" y="42" fill="#FFFFFF" font-size="5px" font-weight="bold" font-family="'Helvetica Neue', Helvetica, Arial-Unicode, Arial, Sans-serif">Created by Hea Poh Lin</text><text x="0" y="47" fill="#FFFFFF" font-size="5px" font-weight="bold" font-family="'Helvetica Neue', Helvetica, Arial-Unicode, Arial, Sans-serif">from the Noun Project</text></svg>