<svg xmlns="http://www.w3.org/2000/svg" xmlns:xlink="http://www.w3.org/1999/xlink" version="1.1" x="0px" y="0px" viewBox="0 0 100 100" style="enable-background:new 0 0 100 100;" xml:space="preserve"><path fill="#FFFFFF"  d="M59.3,32.2c0,0-8.9-7.5-15.5,2.7c-6.6-10.3-15.5-2.7-15.5-2.7c-6.2,5.6,0,13.1,0,13.1  c2.3,4.1,14,15.2,15.4,16.6l0,0l0.1,0.1c1-1,13.1-12.4,15.5-16.7C59.3,45.3,65.5,37.8,59.3,32.2z"/><path fill="#FFFFFF"  d="M43.8,1.5C21.1,1.5,2.6,20,2.6,42.8C2.6,65.5,21.1,84,43.8,84c7.4,0,14.7-2,21.2-5.9l1.5-0.9l18.9,18.9  c1.2,1.3,2.9,1.9,4.7,1.9c1.8,0,3.4-0.7,4.7-1.9c1.2-1.2,1.9-2.9,1.9-4.7c0-1.8-0.7-3.4-1.9-4.7L76.3,68.3l1.6-2.4  c4.6-6.8,7.1-14.8,7.1-23.1C85.1,20,66.6,1.5,43.8,1.5z M43.8,72.8c-16.6,0-30.1-13.5-30.1-30.1c0-16.6,13.5-30.1,30.1-30.1  c16.6,0,30.1,13.5,30.1,30.1C73.9,59.4,60.4,72.8,43.8,72.8z"/></svg>