<svg xmlns="http://www.w3.org/2000/svg" xmlns:xlink="http://www.w3.org/1999/xlink" version="1.1" x="0px" y="0px" viewBox="0 0 100 100" enable-background="new 0 0 100 100" xml:space="preserve"><g><path fill="#FFFFFF" d="M24.617,14.404c0.324-0.139,0.674-0.231,1.043-0.268c1.956-0.194,3.7,1.245,3.895,3.216   c0.196,1.971-1.231,3.727-3.187,3.921c-1.242,0.123-2.396-0.414-3.124-1.326c-0.989,0.831-2.244,3.544-4.226-0.118   C21.551,21.857,21.463,15.501,24.617,14.404z"/><path fill="#FFFFFF"  d="M32.86,24.228c-0.123-0.988-0.963-1.73-1.958-1.731l-1.982-0.002L26.21,24.78l-2.715-2.291l-2.319-0.002   c-1.022-0.001-1.877,0.778-1.969,1.796L18.264,34.61h15.892L32.86,24.228z"/><path fill="#FFFFFF"  d="M14.758,38.226c0.324-0.139,0.674-0.231,1.043-0.268c1.956-0.194,3.7,1.245,3.895,3.216   c0.196,1.971-1.231,3.727-3.187,3.921c-1.242,0.123-2.396-0.414-3.124-1.326c-0.989,0.831-2.244,3.544-4.226-0.118   C11.692,45.68,11.603,39.324,14.758,38.226z"/><path fill="#FFFFFF"  d="M23,48.051c-0.123-0.988-0.963-1.73-1.958-1.731l-1.982-0.002l-2.709,2.285l-2.715-2.291l-2.319-0.002   c-1.022-0.001-1.877,0.778-1.969,1.796L8.404,58.432h15.892L23,48.051z"/><path fill="#FFFFFF"  d="M25.238,62.651c0.324-0.139,0.674-0.231,1.043-0.268c1.956-0.194,3.7,1.245,3.895,3.216   c0.196,1.971-1.231,3.727-3.187,3.921c-1.242,0.123-2.396-0.414-3.124-1.326c-0.989,0.831-2.244,3.544-4.226-0.118   C22.172,70.104,22.084,63.748,25.238,62.651z"/><path fill="#FFFFFF"  d="M33.481,72.475c-0.123-0.988-0.963-1.73-1.958-1.731l-1.982-0.002l-2.709,2.285l-2.715-2.291l-2.319-0.002   c-1.022-0.001-1.877,0.778-1.969,1.796l-0.942,10.326h15.892L33.481,72.475z"/><path fill="#FFFFFF"  d="M49.299,74.069c0.324-0.139,0.674-0.231,1.043-0.268c1.956-0.194,3.7,1.245,3.895,3.216   c0.196,1.971-1.231,3.727-3.187,3.921c-1.242,0.123-2.396-0.414-3.124-1.326c-0.989,0.831-2.244,3.544-4.226-0.118   C46.233,81.523,46.144,75.167,49.299,74.069z"/><path fill="#FFFFFF"  d="M57.541,83.894c-0.123-0.988-0.963-1.73-1.958-1.731l-1.982-0.002l-2.709,2.285l-2.715-2.291l-2.319-0.002   c-1.022-0.001-1.877,0.778-1.969,1.796l-0.942,10.326h15.892L57.541,83.894z"/><path fill="#FFFFFF"  d="M48.665,31.769l3.042,0.005l0.932,4.006l0.201,0.865l0.86,0.222c1.182,0.305,2.327,0.775,3.404,1.397l0.758,0.438   l0.745-0.461l3.477-2.15l2.148,2.154l-2.132,3.425l-0.47,0.755l0.452,0.766c0.643,1.088,1.131,2.256,1.45,3.471l0.224,0.852   l0.857,0.202l3.903,0.921l-0.005,3.042l-3.885,0.904l-0.863,0.201l-0.224,0.857c-0.318,1.221-0.81,2.399-1.462,3.501l-0.451,0.763   l0.466,0.754l2.1,3.398l-2.154,2.148l-3.413-2.124l-0.747-0.465l-0.762,0.441c-1.078,0.624-2.248,1.099-3.476,1.413l-0.861,0.22   l-0.204,0.864l-0.929,3.937l-3.041-0.005l-0.929-3.989l-0.198-0.852l-0.844-0.23c-1.189-0.324-2.326-0.805-3.379-1.43l-0.764-0.453   l-0.755,0.467l-3.51,2.17l-2.148-2.154l2.209-3.55l0.462-0.743l-0.434-0.759c-0.599-1.049-1.056-2.166-1.357-3.319l-0.223-0.854   l-0.859-0.203l-4.085-0.964l0.004-3.042l4.109-0.957l0.855-0.199l0.228-0.847c0.308-1.143,0.768-2.247,1.366-3.281l0.439-0.759   l-0.461-0.746l-2.219-3.59l2.154-2.148l3.562,2.217l0.75,0.467l0.763-0.445c1.041-0.607,2.156-1.073,3.314-1.386l0.844-0.228   l0.201-0.851L48.665,31.769 M50.251,57.448h0.002c4.01,0,7.277-3.262,7.282-7.272c0.003-1.945-0.752-3.775-2.125-5.153   c-1.373-1.378-3.201-2.138-5.158-2.141c-4.009,0-7.276,3.262-7.282,7.272c-0.006,4.016,3.256,7.288,7.27,7.294H50.251    M47.505,30.302l-1.225,5.191c-1.301,0.351-2.532,0.871-3.67,1.535l-4.549-2.831l-3.8,3.789l2.83,4.578   c-0.653,1.128-1.166,2.346-1.513,3.633l-5.241,1.22l-0.008,5.366l5.216,1.231c0.34,1.302,0.85,2.535,1.502,3.676l-2.823,4.536   l3.789,3.8l4.499-2.781c1.157,0.686,2.413,1.221,3.741,1.583l1.192,5.121l5.366,0.008l1.196-5.068   c1.365-0.348,2.658-0.876,3.848-1.565l4.4,2.738l3.8-3.789l-2.711-4.386c0.708-1.197,1.259-2.498,1.618-3.878l5.017-1.168   l0.008-5.366l-5.035-1.188c-0.359-1.366-0.905-2.656-1.606-3.844l2.745-4.412l-3.789-3.8l-4.466,2.761   c-1.168-0.674-2.432-1.201-3.77-1.547l-1.196-5.138L47.505,30.302L47.505,30.302z M50.253,55.982c-0.003,0-0.006,0-0.009,0   c-3.212-0.005-5.812-2.613-5.808-5.825c0.005-3.209,2.608-5.807,5.816-5.808c0.003,0,0.006,0,0.009,0   c3.213,0.005,5.813,2.613,5.808,5.825C56.064,53.383,53.461,55.982,50.253,55.982L50.253,55.982z"/><g><circle fill="#FFFFFF" cx="51.186" cy="8.599" r="3.568"/></g><g><path fill="#FFFFFF"  d="M59.034,25.502l-1.296-10.381c-0.123-0.988-0.963-1.73-1.958-1.731l-9.726-0.01c-1.022-0.001-1.877,0.778-1.97,1.796    l-0.942,10.326H59.034z"/></g><g><circle fill="#FFFFFF" cx="74.536" cy="17.687" r="3.568"/></g><g><path fill="#FFFFFF"  d="M82.384,34.59l-1.296-10.381c-0.123-0.988-0.963-1.73-1.958-1.731l-9.726-0.01c-1.022-0.001-1.877,0.778-1.97,1.796    L66.491,34.59H82.384z"/></g><g><circle fill="#FFFFFF" cx="83.872" cy="41.509" r="3.568"/></g><g><path fill="#FFFFFF"  d="M91.72,58.413l-1.296-10.381c-0.123-0.988-0.963-1.73-1.958-1.731l-9.726-0.01c-1.022-0.001-1.877,0.778-1.97,1.796    l-0.942,10.326H91.72z"/></g><g><circle fill="#FFFFFF" cx="74.013" cy="65.312" r="3.568"/></g><g><path fill="#FFFFFF"  d="M81.861,82.216l-1.296-10.381c-0.123-0.988-0.963-1.73-1.958-1.731l-9.726-0.01c-1.022-0.001-1.877,0.778-1.97,1.796    l-0.942,10.326H81.861z"/></g></g></svg>